<?xml version="1.0" encoding="utf-8"?>
<!-- Generator: Adobe Illustrator 18.0.0, SVG Export Plug-In . SVG Version: 6.00 Build 0)  -->
<!DOCTYPE svg PUBLIC "-//W3C//DTD SVG 1.1//EN" "http://www.w3.org/Graphics/SVG/1.1/DTD/svg11.dtd">
<svg version="1.1" id="Layer_1" xmlns="http://www.w3.org/2000/svg" xmlns:xlink="http://www.w3.org/1999/xlink" x="0px" y="0px"
	 viewBox="0 0 1131.3 817.1" enable-background="new 0 0 1131.3 817.1" xml:space="preserve">
<line fill="none" stroke="#7D7D7D" stroke-width="7" stroke-miterlimit="10" x1="65.8" y1="374.8" x2="236.9" y2="374.8"/>
<line fill="none" stroke="#7D7D7D" stroke-width="7" stroke-miterlimit="10" x1="71.5" y1="418.4" x2="230.9" y2="418.4"/>
<line fill="none" stroke="#7D7D7D" stroke-width="7" stroke-miterlimit="10" x1="189.7" y1="394.6" x2="368.6" y2="394.6"/>
<line fill="none" stroke="#7D7D7D" stroke-width="7" stroke-miterlimit="10" x1="267.8" y1="374.8" x2="356" y2="374.8"/>
<line fill="none" stroke="#7D7D7D" stroke-width="7" stroke-miterlimit="10" x1="79.6" y1="394.4" x2="168.1" y2="394.4"/>
<line fill="none" stroke="#7D7D7D" stroke-width="7" stroke-miterlimit="10" x1="256.6" y1="415" x2="346.8" y2="415"/>
<text transform="matrix(1 0 0 1 149.026 360.1047)" fill="#454545" font-family="'Cabin-Regular'" font-size="22">assembled contigs</text>
<text transform="matrix(1 0 0 1 116.381 215.3504)" fill="#454545" font-family="'Cabin-Regular'" font-size="22">paired-end reads</text>
<g>
	<polygon fill="#3B8ECD" points="111.2,268.5 78.8,268.5 78.8,265 111.2,265 114.2,266.8 	"/>
	<polygon fill="#3B8ECD" points="167.4,259 199.7,259 199.7,255.5 167.4,255.5 164.3,257.3 	"/>
	<polygon fill="#3B8ECD" points="249.9,278.8 217.6,278.8 217.6,275.3 249.9,275.3 253,277.1 	"/>
	<polygon fill="#3B8ECD" points="260.5,264 292.8,264 292.8,260.5 260.5,260.5 257.4,262.3 	"/>
	<polygon fill="#3B8ECD" points="250.5,251.2 282.8,251.2 282.8,247.8 250.5,247.8 247.4,249.5 	"/>
	<polygon fill="#3B8ECD" points="113.3,257.3 81,257.3 81,253.8 113.3,253.8 116.4,255.6 	"/>
	<polygon fill="#3B8ECD" points="195.9,268.5 228.2,268.5 228.2,265 195.9,265 192.8,266.8 	"/>
	<polygon fill="#3B8ECD" points="152.4,274.4 120,274.4 120,271 152.4,271 155.5,272.7 	"/>
	<polygon fill="#3B8ECD" points="200.6,294.1 232.9,294.1 232.9,290.7 200.6,290.7 197.5,292.5 	"/>
	<polygon fill="#3B8ECD" points="291.7,297.7 259.4,297.7 259.4,294.2 291.7,294.2 294.8,296 	"/>
	<polygon fill="#3B8ECD" points="181.2,241.8 213.6,241.8 213.6,238.4 181.2,238.4 178.1,240.1 	"/>
	<polygon fill="#3B8ECD" points="290.4,241.8 258.1,241.8 258.1,238.4 290.4,238.4 293.5,240.1 	"/>
	<polygon fill="#3B8ECD" points="182.4,286.1 150.1,286.1 150.1,282.7 182.4,282.7 185.5,284.4 	"/>
	<polygon fill="#3B8ECD" points="268.3,282.2 300.6,282.2 300.6,278.8 268.3,278.8 265.2,280.6 	"/>
	<polygon fill="#3B8ECD" points="167.1,264 134.8,264 134.8,260.5 167.1,260.5 170.2,262.3 	"/>
	<polygon fill="#3B8ECD" points="158.7,274.4 191,274.4 191,271 158.7,271 155.6,272.7 	"/>
	<polygon fill="#3B8ECD" points="139.7,241.8 107.4,241.8 107.4,238.4 139.7,238.4 142.8,240.1 	"/>
	<polygon fill="#3B8ECD" points="135.5,247.8 167.8,247.8 167.8,244.3 135.5,244.3 132.4,246.1 	"/>
	<polygon fill="#3B8ECD" points="252.5,236 220.2,236 220.2,232.6 252.5,232.6 255.6,234.4 	"/>
	<polygon fill="#3B8ECD" points="284.1,274.4 251.8,274.4 251.8,271 284.1,271 287.2,272.7 	"/>
	<polygon fill="#3B8ECD" points="127.9,234.3 95.5,234.3 95.5,230.9 127.9,230.9 131,232.7 	"/>
	<polygon fill="#3B8ECD" points="147.7,232.6 180,232.6 180,229.1 147.7,229.1 144.6,230.9 	"/>
	<polygon fill="#3B8ECD" points="225.1,247.8 192.8,247.8 192.8,244.3 225.1,244.3 228.2,246.1 	"/>
	<polygon fill="#3B8ECD" points="238.8,312.6 271.1,312.6 271.1,309.1 238.8,309.1 235.7,310.9 	"/>
	<polygon fill="#3B8ECD" points="124.1,255.1 156.4,255.1 156.4,251.7 124.1,251.7 121,253.5 	"/>
	<polygon fill="#3B8ECD" points="153.2,317.6 185.5,317.6 185.5,321 153.2,321 150.1,319.2 	"/>
	<polygon fill="#3B8ECD" points="256.1,299.4 223.8,299.4 223.8,302.8 256.1,302.8 259.2,301 	"/>
	<polygon fill="#3B8ECD" points="184.1,303.9 216.4,303.9 216.4,307.4 184.1,307.4 181,305.6 	"/>
	<polygon fill="#3B8ECD" points="156.8,305.7 124.5,305.7 124.5,309.1 156.8,309.1 159.9,307.3 	"/>
	<polygon fill="#3B8ECD" points="170.3,297.7 137.9,297.7 137.9,301.1 170.3,301.1 173.3,299.3 	"/>
	<polygon fill="#3B8ECD" points="287.1,310.8 319.4,310.8 319.4,314.3 287.1,314.3 284,312.5 	"/>
	<polygon fill="#3B8ECD" points="257,298.1 224.6,298.1 224.6,301.6 257,301.6 260.1,299.8 	"/>
	<polygon fill="#3B8ECD" points="185.1,299.4 217.4,299.4 217.4,302.8 185.1,302.8 182,301 	"/>
	<polygon fill="#3B8ECD" points="238.4,255.5 206.1,255.5 206.1,259 238.4,259 241.5,257.2 	"/>
	<polygon fill="#3B8ECD" points="147.7,290.7 180,290.7 180,294.1 147.7,294.1 144.6,292.4 	"/>
	<polygon fill="#3B8ECD" points="111.7,323.7 79.3,323.7 79.3,327.1 111.7,327.1 114.7,325.4 	"/>
	<polygon fill="#3B8ECD" points="118.8,304.9 151.2,304.9 151.2,308.4 118.8,308.4 115.8,306.6 	"/>
	<polygon fill="#3B8ECD" points="101.1,279.2 133.5,279.2 133.5,282.7 101.1,282.7 98.1,280.9 	"/>
	<polygon fill="#3B8ECD" points="129.4,293.2 97,293.2 97,296.6 129.4,296.6 132.4,294.8 	"/>
	<polygon fill="#3B8ECD" points="250.5,287.2 282.8,287.2 282.8,290.7 250.5,290.7 247.4,288.9 	"/>
	<polygon fill="#3B8ECD" points="244.3,280.9 211.9,280.9 211.9,284.4 244.3,284.4 247.3,282.6 	"/>
	<polygon fill="#3B8ECD" points="283.3,299.3 315.7,299.3 315.7,302.7 283.3,302.7 280.2,301 	"/>
	<polygon fill="#3B8ECD" points="205.7,277.1 173.3,277.1 173.3,280.5 205.7,280.5 208.8,278.7 	"/>
	<polygon fill="#3B8ECD" points="175,308.4 207.3,308.4 207.3,311.8 175,311.8 171.9,310 	"/>
	<polygon fill="#3B8ECD" points="213.6,310.7 245.9,310.7 245.9,314.1 213.6,314.1 210.5,312.4 	"/>
	<polygon fill="#3B8ECD" points="161.2,325.4 128.9,325.4 128.9,328.9 161.2,328.9 164.3,327.1 	"/>
	<polygon fill="#3B8ECD" points="276.4,319.3 244.1,319.3 244.1,322.7 276.4,322.7 279.5,320.9 	"/>
	<polygon fill="#3B8ECD" points="195.9,317.6 228.2,317.6 228.2,321 195.9,321 192.8,319.2 	"/>
	<polygon fill="#3B8ECD" points="141.5,312.4 109.2,312.4 109.2,315.9 141.5,315.9 144.6,314.1 	"/>
	<polygon fill="#3B8ECD" points="293.9,306.7 261.6,306.7 261.6,310.1 293.9,310.1 297,308.3 	"/>
</g>
<line fill="none" stroke="#FFDE17" stroke-width="7" stroke-miterlimit="10" x1="811.8" y1="674.6" x2="982.9" y2="674.6"/>
<line fill="none" stroke="#FFDE17" stroke-width="7" stroke-miterlimit="10" x1="797.3" y1="718.4" x2="997.4" y2="718.4"/>
<line fill="none" stroke="#00A14B" stroke-width="7" stroke-miterlimit="10" x1="750.1" y1="695.8" x2="909.4" y2="695.8"/>
<line fill="none" stroke="#ED1C24" stroke-width="7" stroke-miterlimit="10" x1="933.1" y1="695.8" x2="1021.7" y2="695.8"/>
<g>
	<text transform="matrix(1 0 0 1 821.1962 598.4136)"><tspan x="0" y="0" fill="#010101" font-family="'ArchivoNarrow-Regular'" font-size="27">calculate contig</tspan><tspan x="0" y="32.4" fill="#010101" font-family="'ArchivoNarrow-Regular'" font-size="27">transrate scores</tspan></text>
</g>
<g>
	<text transform="matrix(1 0 0 1 469.4654 599.3457)"><tspan x="0" y="0" fill="#010101" font-family="'ArchivoNarrow-Regular'" font-size="27">calculate assembly</tspan><tspan x="0" y="32.4" fill="#010101" font-family="'ArchivoNarrow-Regular'" font-size="27">transrate score</tspan></text>
</g>
<g>
	<text transform="matrix(1 0 0 1 821.1964 165.1371)"><tspan x="0" y="0" fill="#010101" font-family="'ArchivoNarrow-Regular'" font-size="27">collect contig</tspan><tspan x="0" y="32.4" fill="#010101" font-family="'ArchivoNarrow-Regular'" font-size="27">score components</tspan></text>
</g>
<g>
	<text transform="matrix(1 0 0 1 139.3291 179.9754)" fill="#010101" font-family="'ArchivoNarrow-Regular'" font-size="27">input data</text>
</g>
<g>
	<text transform="matrix(1 0 0 1 123.9455 605.3365)"><tspan x="0" y="0" fill="#010101" font-family="'ArchivoNarrow-Regular'" font-size="27">identify potential </tspan><tspan x="0" y="32.4" fill="#010101" font-family="'ArchivoNarrow-Regular'" font-size="27">improvements</tspan></text>
</g>
<g>
	<g>
		<line fill="none" stroke="#7D7D7D" stroke-miterlimit="10" stroke-dasharray="3" x1="381.3" y1="795.1" x2="493" y2="795.4"/>
		<line fill="none" stroke="#7D7D7D" stroke-width="7" stroke-miterlimit="10" x1="333.5" y1="795.4" x2="421.8" y2="795.4"/>
	</g>
	<line fill="none" stroke="#7D7D7D" stroke-width="7" stroke-miterlimit="10" x1="444.9" y1="795.4" x2="533.1" y2="795.4"/>
	<text transform="matrix(1 0 0 1 326.5237 752.8754)" fill="#010101" font-family="'ArchivoNarrow-Regular'" font-size="22">fragmented transcripts</text>
	<g>
		<polygon fill="#2FB44A" points="456.6,787.2 488.9,787.2 488.9,790.6 456.6,790.6 453.5,788.8 		"/>
		<polygon fill="#2FB44A" points="414.1,787.2 381.7,787.2 381.7,790.6 414.1,790.6 417.2,788.8 		"/>
		<g>
			<g>
				<path fill="none" stroke="#2FB44A" stroke-miterlimit="10" d="M417.2,788.2c0,0,0.4-0.4,1.2-0.9"/>
				<path fill="none" stroke="#2FB44A" stroke-miterlimit="10" stroke-dasharray="2.8403,2.8403" d="M420.7,785.7
					c3.4-2.2,8.9-5,13.9-5c5.7,0,12.8,3.8,16.5,6"/>
				<path fill="none" stroke="#2FB44A" stroke-miterlimit="10" d="M452.3,787.4c0.8,0.5,1.3,0.8,1.3,0.8"/>
			</g>
		</g>
		<polygon fill="#2FB44A" points="454.6,782.2 486.9,782.2 486.9,785.6 454.6,785.6 451.5,783.8 		"/>
		<polygon fill="#2FB44A" points="412.1,782.2 379.7,782.2 379.7,785.6 412.1,785.6 415.2,783.8 		"/>
		<g>
			<g>
				<path fill="none" stroke="#2FB44A" stroke-miterlimit="10" d="M415.2,783.2c0,0,0.4-0.4,1.2-0.9"/>
				<path fill="none" stroke="#2FB44A" stroke-miterlimit="10" stroke-dasharray="2.8403,2.8403" d="M418.7,780.7
					c3.4-2.2,8.9-5,13.9-5c5.7,0,12.8,3.8,16.5,6"/>
				<path fill="none" stroke="#2FB44A" stroke-miterlimit="10" d="M450.3,782.4c0.8,0.5,1.3,0.8,1.3,0.8"/>
			</g>
		</g>
		<polygon fill="#2FB44A" points="456.6,777.2 488.9,777.2 488.9,780.6 456.6,780.6 453.5,778.8 		"/>
		<polygon fill="#2FB44A" points="414.1,777.2 381.7,777.2 381.7,780.6 414.1,780.6 417.2,778.8 		"/>
		<g>
			<g>
				<path fill="none" stroke="#2FB44A" stroke-miterlimit="10" d="M417.2,778.2c0,0,0.4-0.4,1.2-0.9"/>
				<path fill="none" stroke="#2FB44A" stroke-miterlimit="10" stroke-dasharray="2.8403,2.8403" d="M420.7,775.7
					c3.4-2.2,8.9-5,13.9-5c5.7,0,12.8,3.8,16.5,6"/>
				<path fill="none" stroke="#2FB44A" stroke-miterlimit="10" d="M452.3,777.4c0.8,0.5,1.3,0.8,1.3,0.8"/>
			</g>
		</g>
		<polygon fill="#2FB44A" points="452.2,772.2 484.5,772.2 484.5,775.6 452.2,775.6 449.1,773.8 		"/>
		<polygon fill="#2FB44A" points="409.7,772.2 377.3,772.2 377.3,775.6 409.7,775.6 412.7,773.8 		"/>
		<g>
			<g>
				<path fill="none" stroke="#2FB44A" stroke-miterlimit="10" d="M412.7,773.2c0,0,0.4-0.4,1.2-0.9"/>
				<path fill="none" stroke="#2FB44A" stroke-miterlimit="10" stroke-dasharray="2.8403,2.8403" d="M416.3,770.7
					c3.4-2.2,8.9-5,13.9-5c5.7,0,12.8,3.8,16.5,6"/>
				<path fill="none" stroke="#2FB44A" stroke-miterlimit="10" d="M447.9,772.4c0.8,0.5,1.3,0.8,1.3,0.8"/>
			</g>
		</g>
		<polygon fill="#2FB44A" points="455.6,767.2 487.9,767.2 487.9,770.6 455.6,770.6 452.5,768.8 		"/>
		<polygon fill="#2FB44A" points="413.1,767.2 380.7,767.2 380.7,770.6 413.1,770.6 416.2,768.8 		"/>
		<g>
			<g>
				<path fill="none" stroke="#2FB44A" stroke-miterlimit="10" d="M416.2,768.2c0,0,0.4-0.4,1.2-0.9"/>
				<path fill="none" stroke="#2FB44A" stroke-miterlimit="10" stroke-dasharray="2.8403,2.8403" d="M419.7,765.7
					c3.4-2.2,8.9-5,13.9-5c5.7,0,12.8,3.8,16.5,6"/>
				<path fill="none" stroke="#2FB44A" stroke-miterlimit="10" d="M451.3,767.4c0.8,0.5,1.3,0.8,1.3,0.8"/>
			</g>
		</g>
	</g>
</g>
<g>
	<rect x="122.1" y="726.9" fill="#F8E0C0" width="28" height="37.4"/>
	<rect x="227.8" y="708.5" fill="#D4EFFB" width="23.7" height="55.8"/>
	<line fill="#165E9C" stroke="#7D7D7D" stroke-width="7" stroke-miterlimit="10" x1="61.2" y1="745.3" x2="295" y2="745.3"/>
	<polyline fill="none" stroke="#3B7DC0" stroke-width="2" stroke-miterlimit="10" points="61.2,705.6 66.7,695 71.7,698.5 
		74.7,693.9 80.2,690.9 85.2,685.7 90.2,695.7 93.3,690.3 97.9,701.9 104,695.7 109.3,698.6 114.1,700.4 117.5,692.7 120.5,697.2 
		125.7,693.9 131.1,711.2 133.7,704.7 137.3,710.9 143.9,695.7 146.7,701.3 157.3,709 161.2,713 165.1,706.9 168.7,711.5 
		173.7,703.2 178.1,707.4 183.6,701.9 188.8,708.7 194,695.3 197.7,701.7 202.5,696.7 206.3,690 210.9,699.6 215.5,705 219.5,696.9 
		223.2,691.7 227.3,699.8 230.7,725.7 234.6,721 238.9,740 243.9,739.9 248.5,723.3 251.4,703.5 256.5,706 264.4,708.9 269.1,706 
		274.7,708.9 281.7,713 286.5,718.7 291.1,724.4 295,727 	"/>
	<path fill="none" stroke="#E88C24" stroke-width="2" stroke-miterlimit="10" d="M61.2,713.5c0,0,35.9-0.1,40.9,0.8
		c5,1,22.7,24.9,34.7,25.1c12,0.2,42.1-34.6,55-36.8c12.8-2.1,25.8-5.9,45.1-6.6c19.3-0.7,58.1-1.8,58.1-1.8"/>
	<text transform="matrix(1 0 0 1 97.0961 677.0081)" fill="#010101" font-family="'ArchivoNarrow-Regular'" font-size="22">abnormal regions</text>
	<text transform="matrix(1 0 0 1 102.747 778.3596)"><tspan x="0" y="0" fill="#E88C24" font-family="'ArchivoNarrow-Regular'" font-size="15">duplicated</tspan><tspan x="13.2" y="18" fill="#E88C24" font-family="'ArchivoNarrow-Regular'" font-size="15">region</tspan></text>
	<text transform="matrix(1 0 0 1 207.5195 778.3596)"><tspan x="0" y="0" fill="#3B7DC0" font-family="'ArchivoNarrow-Regular'" font-size="15">uncovered</tspan><tspan x="13.1" y="18" fill="#3B7DC0" font-family="'ArchivoNarrow-Regular'" font-size="15">region</tspan></text>
</g>
<g>
	<line fill="none" stroke="#7D7D7D" stroke-width="7" stroke-miterlimit="10" x1="420.6" y1="259.1" x2="654.4" y2="259.1"/>
	<polygon fill="#3B8ECD" points="452.9,252.7 420.6,252.7 420.6,249.2 452.9,249.2 456,251 	"/>
	<polygon fill="#3B8ECD" points="466.9,252.7 499.3,252.7 499.3,249.2 466.9,249.2 463.9,251 	"/>
	<polygon fill="#3B8ECD" points="583.7,227 551.3,227 551.3,223.6 583.7,223.6 586.7,225.3 	"/>
	<polygon fill="#3B8ECD" points="597.7,227 630,227 630,223.6 597.7,223.6 594.6,225.3 	"/>
	<polygon fill="#3B8ECD" points="582.2,239.9 614.6,239.9 614.6,236.5 582.2,236.5 579.2,238.2 	"/>
	<polygon fill="#3B8ECD" points="456,227 423.7,227 423.7,223.6 456,223.6 459.1,225.3 	"/>
	<polygon fill="#3B8ECD" points="502.8,227 535.2,227 535.2,223.6 502.8,223.6 499.7,225.3 	"/>
	<polygon fill="#3B8ECD" points="533.5,252.7 501.2,252.7 501.2,249.2 533.5,249.2 536.6,251 	"/>
	<polygon fill="#3B8ECD" points="540.4,252.7 572.7,252.7 572.7,249.2 540.4,249.2 537.3,251 	"/>
	<polygon fill="#3B8ECD" points="606.7,252.7 574.4,252.7 574.4,249.2 606.7,249.2 609.8,251 	"/>
	<polygon fill="#3B8ECD" points="616.4,252.7 648.8,252.7 648.8,249.2 616.4,249.2 613.4,251 	"/>
	<polygon fill="#3B8ECD" points="612.3,246.4 580,246.4 580,243 612.3,243 615.4,244.8 	"/>
	<polygon fill="#3B8ECD" points="576.9,246.4 544.6,246.4 544.6,243 576.9,243 580,244.8 	"/>
	<polygon fill="#3B8ECD" points="622,246.4 654.4,246.4 654.4,243 622,243 618.9,244.8 	"/>
	<polygon fill="#3B8ECD" points="498.6,246.4 466.3,246.4 466.3,243 498.6,243 501.7,244.8 	"/>
	<polygon fill="#3B8ECD" points="508.3,246.4 540.6,246.4 540.6,243 508.3,243 505.2,244.8 	"/>
	<polygon fill="#3B8ECD" points="467.2,239.9 434.9,239.9 434.9,236.5 467.2,236.5 470.3,238.2 	"/>
	<polygon fill="#3B8ECD" points="476.9,239.9 509.3,239.9 509.3,236.5 476.9,236.5 473.8,238.2 	"/>
	<polygon fill="#3B8ECD" points="593.8,233.5 561.4,233.5 561.4,230 593.8,230 596.9,231.8 	"/>
	<polygon fill="#3B8ECD" points="555.3,233.5 522.9,233.5 522.9,230 555.3,230 558.3,231.8 	"/>
	<polygon fill="#3B8ECD" points="460.1,233.5 427.8,233.5 427.8,230 460.1,230 463.2,231.8 	"/>
	<polygon fill="#3B8ECD" points="489.8,233.5 522.1,233.5 522.1,230 489.8,230 486.7,231.8 	"/>
	<polygon fill="#3B8ECD" points="571.7,239.9 539.3,239.9 539.3,236.5 571.7,236.5 574.8,238.2 	"/>
	<polygon fill="#3B8ECD" points="620.9,239.9 653.2,239.9 653.2,236.5 620.9,236.5 617.8,238.2 	"/>
	<polygon fill="#3B8ECD" points="430.7,246.4 463,246.4 463,243 430.7,243 427.6,244.8 	"/>
	<polygon fill="#3B8ECD" points="621.8,265.9 654.2,265.9 654.2,269.4 621.8,269.4 618.8,267.6 	"/>
	<polygon fill="#3B8ECD" points="613.5,265.9 581.2,265.9 581.2,269.4 613.5,269.4 616.6,267.6 	"/>
	<polygon fill="#3B8ECD" points="491.1,291.6 523.5,291.6 523.5,295 491.1,295 488,293.2 	"/>
	<polygon fill="#3B8ECD" points="468.6,291.6 436.2,291.6 436.2,295 468.6,295 471.7,293.2 	"/>
	<polygon fill="#3B8ECD" points="501.1,278.7 468.8,278.7 468.8,282.1 501.1,282.1 504.2,280.4 	"/>
	<polygon fill="#3B8ECD" points="607.4,291.6 639.7,291.6 639.7,295 607.4,295 604.3,293.2 	"/>
	<polygon fill="#3B8ECD" points="584.8,291.6 552.5,291.6 552.5,295 584.8,295 587.9,293.2 	"/>
	<polygon fill="#3B8ECD" points="547,265.9 579.3,265.9 579.3,269.4 547,269.4 543.9,267.6 	"/>
	<polygon fill="#3B8ECD" points="534.4,265.9 502.1,265.9 502.1,269.4 534.4,269.4 537.5,267.6 	"/>
	<polygon fill="#3B8ECD" points="463.8,265.9 496.1,265.9 496.1,269.4 463.8,269.4 460.7,267.6 	"/>
	<polygon fill="#3B8ECD" points="455.5,265.9 423.2,265.9 423.2,269.4 455.5,269.4 458.6,267.6 	"/>
	<polygon fill="#3B8ECD" points="462.5,272.1 494.8,272.1 494.8,275.6 462.5,275.6 459.4,273.8 	"/>
	<polygon fill="#3B8ECD" points="499.3,272.1 531.7,272.1 531.7,275.6 499.3,275.6 496.2,273.8 	"/>
	<polygon fill="#3B8ECD" points="452.8,272.1 420.4,272.1 420.4,275.6 452.8,275.6 455.8,273.8 	"/>
	<polygon fill="#3B8ECD" points="576.2,272.1 608.5,272.1 608.5,275.6 576.2,275.6 573.1,273.8 	"/>
	<polygon fill="#3B8ECD" points="569.3,272.1 537,272.1 537,275.6 569.3,275.6 572.4,273.8 	"/>
	<polygon fill="#3B8ECD" points="616.1,278.7 648.5,278.7 648.5,282.1 616.1,282.1 613.1,280.4 	"/>
	<polygon fill="#3B8ECD" points="596.4,278.7 564.1,278.7 564.1,282.1 596.4,282.1 599.5,280.4 	"/>
	<polygon fill="#3B8ECD" points="489.6,285.1 521.9,285.1 521.9,288.6 489.6,288.6 486.5,286.8 	"/>
	<polygon fill="#3B8ECD" points="528.1,285.1 560.4,285.1 560.4,288.6 528.1,288.6 525,286.8 	"/>
	<polygon fill="#3B8ECD" points="477,285.1 444.7,285.1 444.7,288.6 477,288.6 480.1,286.8 	"/>
	<polygon fill="#3B8ECD" points="612.1,285.1 579.8,285.1 579.8,288.6 612.1,288.6 615.2,286.8 	"/>
	<polygon fill="#3B8ECD" points="511.7,278.7 544,278.7 544,282.1 511.7,282.1 508.6,280.4 	"/>
	<polygon fill="#3B8ECD" points="458.2,278.7 425.9,278.7 425.9,282.1 458.2,282.1 461.3,280.4 	"/>
	<polygon fill="#3B8ECD" points="651.2,272.1 618.9,272.1 618.9,275.6 651.2,275.6 654.3,273.8 	"/>
</g>
<text transform="matrix(1 0 0 1 481.3767 179.9756)" fill="#010101" font-family="'ArchivoNarrow-Regular'" font-size="27">map reads</text>
<g>
	<g>
		<line fill="#FFFFFF" x1="635.5" y1="139.9" x2="635.5" y2="166.6"/>
		<line fill="#FFFFFF" x1="538.4" y1="166.6" x2="538.4" y2="139.9"/>
	</g>
</g>
<g>
	<path fill="#B2DBF4" d="M895.6,415c-21-1.1-13.5-19-25.3-19.4C858.5,396,866,413.9,845,415"/>
	<path fill="#B2DBF4" d="M907.2,484.4c-21-1.1-13.5-19-25.3-19.4c-11.8,0.4-4.3,18.4-25.3,19.4"/>
	<line fill="none" stroke="#7D7D7D" stroke-width="7" stroke-miterlimit="10" x1="811.3" y1="418.4" x2="1045.1" y2="418.4"/>
	<line fill="none" stroke="#7D7D7D" stroke-width="7" stroke-miterlimit="10" x1="812.6" y1="486.7" x2="1046.4" y2="486.7"/>
	<polygon fill="#2FB44A" points="863.8,411.9 831.5,411.9 831.5,408.5 863.8,408.5 866.9,410.3 	"/>
	<polygon fill="#2FB44A" points="877.8,428.5 910.1,428.5 910.1,425.1 877.8,425.1 874.7,426.8 	"/>
	<polygon fill="#E62625" points="1001.2,408.5 1033.5,408.5 1033.5,411.9 1001.2,411.9 998.1,410.2 	"/>
	<polygon fill="#E62625" points="959.6,476.6 991.9,476.6 991.9,480.1 959.6,480.1 956.5,478.3 	"/>
	<polygon fill="#E62625" points="1009.9,476.6 1042.3,476.6 1042.3,480.1 1009.9,480.1 1006.9,478.3 	"/>
	<polygon fill="#E62625" points="957.5,408.5 925.1,408.5 925.1,411.9 957.5,411.9 960.6,410.2 	"/>
	<text transform="matrix(1 0 0 1 845.9622 447.3787)" fill="#2FB44A" font-family="'ArchivoNarrow-Regular'" font-size="15">good pair</text>
	<text transform="matrix(1 0 0 1 950.4421 447.3787)" fill="#E62625" font-family="'ArchivoNarrow-Regular'" font-size="15">bad pairs</text>
	<text transform="matrix(1 0 0 1 838.1593 377.0993)" fill="#010101" font-family="'ArchivoNarrow-Regular'" font-size="22">evaluate alignments</text>
	<polygon fill="#E62625" points="914.9,478.3 947.3,478.3 947.3,481.8 914.9,481.8 911.8,480 	"/>
	<polygon fill="#E62625" points="845.9,492.9 813.5,492.9 813.5,496.3 845.9,496.3 848.9,494.5 	"/>
	<g>
		<g>
			<path fill="none" stroke="#E62625" stroke-miterlimit="10" d="M849.1,494.5c0,0,0.5-0.3,1.3-0.8"/>
			<path fill="none" stroke="#E62625" stroke-miterlimit="10" stroke-dasharray="2.9829,2.9829" d="M853,492.3
				c7.4-4.1,23.6-12.3,35.3-12.3c4.1,0,15.2,0,20.5,0"/>
			<path fill="none" stroke="#E62625" stroke-miterlimit="10" d="M910.3,480.1c0.9,0,1.5,0,1.5,0"/>
		</g>
	</g>
	<g>
		<g>
			<path fill="none" stroke="#E62625" stroke-miterlimit="10" d="M961.3,410c0,0,0.4-0.3,1.2-0.9"/>
			<path fill="none" stroke="#E62625" stroke-miterlimit="10" stroke-dasharray="2.8185,2.8185" d="M964.9,407.6
				c3.4-2.1,8.9-4.8,13.8-4.8c5.7,0,12.8,3.6,16.5,5.7"/>
			<path fill="none" stroke="#E62625" stroke-miterlimit="10" d="M996.4,409.2c0.8,0.5,1.3,0.8,1.3,0.8"/>
		</g>
	</g>
	<g>
		<g>
			<path fill="none" stroke="#E62625" stroke-miterlimit="10" d="M956,477.8c0,0,0.4-0.4,1-1.1"/>
			<path fill="none" stroke="#E62625" stroke-miterlimit="10" stroke-dasharray="2.9698,2.9698" d="M959.1,474.6
				c4.5-4.3,13.1-11.3,21-11.4c8.6,0,19.5,8.5,24.1,12.5"/>
			<path fill="none" stroke="#E62625" stroke-miterlimit="10" d="M1005.2,476.8c0.7,0.6,1.1,1,1.1,1"/>
		</g>
	</g>
</g>
<line fill="none" stroke="#7D7D7D" stroke-width="7" stroke-miterlimit="10" x1="812.4" y1="323.4" x2="1046.2" y2="323.4"/>
<polyline fill="none" stroke="#3B7DC0" stroke-width="2" stroke-miterlimit="10" points="812.4,296.7 817.8,286 822.8,289.6 
	825.9,284.9 831.3,281.9 836.4,276.7 841.4,286.7 844.4,281.4 849,293 855.1,286.7 860.4,296.7 865.3,295.4 868.6,287.8 
	871.7,292.2 876.8,289 882.2,306.3 884.9,299.8 888.4,305.9 895,290.8 897.9,296.3 908.4,280.1 912.3,304.1 916.2,298 919.8,302.6 
	924.8,294.2 929.3,298.5 934.8,293 940,299.7 945.1,286.4 948.9,292.8 953.7,287.8 957.4,281 962.1,290.7 966.7,296.1 970.6,288 
	974.4,282.8 978.5,290.8 981.8,300.8 985.8,296.1 990,294 995,291 999.7,298.3 1002.6,294.6 1007.7,297.1 1015.5,299.9 
	1020.3,297.1 1025.9,299.9 1032.8,293.1 1037.6,298.7 1042.3,304.4 1046.2,307.1 "/>
<path fill="none" stroke="#E88C24" stroke-width="2" stroke-miterlimit="10" d="M812.4,304.6c0,0,35.9-0.1,40.9,0.8
	c5,1,22.7-7.1,34.7-6.9c12,0.2,42.1-2.6,55-4.8c12.8-2.1,25.8-5.9,45.1-6.6c19.3-0.7,58.1-1.8,58.1-1.8"/>
<text transform="matrix(1 0 0 1 985.0734 280.7386)" fill="#E88C24" font-family="'ArchivoNarrow-Regular'" font-size="15">uniqueness</text>
<text transform="matrix(1 0 0 1 980.4069 312.7386)" fill="#3B7DC0" font-family="'ArchivoNarrow-Regular'" font-size="15">coverage</text>
<g>
	<text transform="matrix(1 0 0 1 808.6212 255.3226)" fill="#010101" font-family="'ArchivoNarrow-Regular'" font-size="22">calculate per-base statistics</text>
</g>
<g>
	<text transform="matrix(1 0 0 1 456.0402 91.0465)" fill="#494B4D" font-family="'OpenSans-SemiboldItalic'" font-size="68.4394">trans</text>
	<text transform="matrix(1 0 0 1 622.2153 91.0459)" fill="#6D7172" font-family="'OpenSans-Bold'" font-size="68.4394">rate</text>
	<g>
		<rect x="399.3" y="80.5" fill="#ED1C24" stroke="#ED1C24" stroke-width="3" stroke-miterlimit="10" width="41.5" height="9.3"/>
		<rect x="399.3" y="63.9" fill="#FFDE17" stroke="#FFDE17" stroke-width="3" stroke-miterlimit="10" width="41.5" height="9.3"/>
		<rect x="399.3" y="47.5" fill="#00A14B" stroke="#00A14B" stroke-width="3" stroke-miterlimit="10" width="41.5" height="9.3"/>
		<polyline fill="none" stroke="#00A14B" stroke-width="3" stroke-miterlimit="10" points="366,47.7 382.7,35.9 399.3,47.5 		"/>
		<polyline fill="none" stroke="#FFDE17" stroke-width="3" stroke-miterlimit="10" points="366,64 382.7,52.2 399.3,63.9 		"/>
		<polyline fill="none" stroke="#ED1C24" stroke-width="3" stroke-miterlimit="10" points="366,80.5 382.7,68.7 399.3,80.4 		"/>
		<rect x="335.5" y="80.7" fill="#ED1C24" stroke="#ED1C24" stroke-width="3" stroke-miterlimit="10" width="30.5" height="9.3"/>
		<rect x="324.5" y="80.7" fill="#FFFFFF" stroke="#ED1C24" stroke-width="3" stroke-miterlimit="10" width="11" height="9.3"/>
		<rect x="324.5" y="64" fill="#FFFFFF" stroke="#FFDE17" stroke-width="3" stroke-miterlimit="10" width="11" height="9.3"/>
		<rect x="335.5" y="64" fill="#FFDE17" stroke="#FFDE17" stroke-width="3" stroke-miterlimit="10" width="30.5" height="9.3"/>
		<rect x="335.5" y="47.7" fill="#00A14B" stroke="#00A14B" stroke-width="3" stroke-miterlimit="10" width="30.5" height="9.3"/>
		<rect x="324.5" y="47.7" fill="#FFFFFF" stroke="#00A14B" stroke-width="3" stroke-miterlimit="10" width="11" height="9.3"/>
		<rect x="429.8" y="80.5" fill="#FFFFFF" stroke="#ED1C24" stroke-width="3" stroke-miterlimit="10" width="11" height="9.3"/>
		<rect x="429.8" y="63.9" fill="#FFFFFF" stroke="#FFDE17" stroke-width="3" stroke-miterlimit="10" width="11" height="9.3"/>
		<rect x="429.8" y="47.5" fill="#FFFFFF" stroke="#00A14B" stroke-width="3" stroke-miterlimit="10" width="11" height="9.3"/>
	</g>
</g>
<g>
	<polyline fill="#FFFFFF" stroke="#00A14B" stroke-width="3" stroke-miterlimit="10" points="658.1,510 665.8,511.3 661.4,517.4 	
		"/>
	<polyline fill="none" stroke="#FFDE17" stroke-width="3" stroke-miterlimit="10" points="574.2,447.7 579.7,442.3 582.1,449.5 	"/>
	<polyline fill="none" stroke="#FFDE17" stroke-width="3" stroke-miterlimit="10" points="520.5,449.5 523.1,442.2 528.4,447.7 	"/>
	<polyline fill="none" stroke="#ED1C24" stroke-width="3" stroke-miterlimit="10" points="441,517.4 436.9,510.9 444.4,510.1 	"/>
	<text transform="matrix(1 0 0 1 446.867 556.0709)" fill="#494B4D" font-family="'OpenSans-SemiboldItalic'" font-size="41.8436">trans</text>
	<text transform="matrix(1 0 0 1 568.0302 556.0705)" fill="#6D7172" font-family="'OpenSans-Bold'" font-size="41.8436">rate</text>
	<rect x="478" y="467.9" fill="#6D7172" stroke="#FFFFFF" stroke-width="2" stroke-miterlimit="10" width="0" height="12.4"/>
	<path fill="#FFDE17" d="M526.2,447l0.8,3.3l1.1,4.7c15.4-3.2,31.1-3.2,46.4,0l1-4.4l0.8-3.6C559.7,443.5,542.8,443.5,526.2,447z"/>
	<polygon fill="#F26522" points="524,455.9 523.1,451.8 524,455.9 	"/>
	<polygon fill="#FFFFFF" points="526.2,447 527,450.3 526.2,447 	"/>
	<path fill="#FFFFFF" d="M528.5,457c-0.7,0.1-1.4,0.3-2,0.4c-0.7,0.2-1.3,0.3-2,0.5l0.4,2l2-0.5l2-0.5L528.5,457z"/>
	
		<rect x="575.3" y="451.9" transform="matrix(0.2227 -0.9749 0.9749 0.2227 9.8263 916.0976)" fill="#FFDE17" width="8.3" height="0"/>
	<polygon fill="#FFFFFF" points="576.3,447 576.3,447 575.5,450.6 	"/>
	<path fill="#00A14B" d="M654.3,518.6c6.6,14.3,10,29.5,10.3,45.3l8.2,0c-0.3-16.8-4.1-33.6-11.1-48.8L654.3,518.6z"/>
	<g>
		<path fill="#FFFFFF" d="M666.2,562.4c-0.1-3.9-0.4-7.8-1-11.6l5.2-0.8c0.6,4.1,0.9,8.3,1,12.4L666.2,562.4z"/>
		<path fill="#00A14B" d="M669.2,551.7c0.4,3.1,0.6,6.1,0.8,9.2l-2.2,0c-0.1-3-0.4-5.9-0.7-8.9L669.2,551.7 M671.7,548.3l-8.2,1.2
			c0.7,4.8,1.1,9.6,1.2,14.4l8.2,0C672.9,558.7,672.5,553.4,671.7,548.3L671.7,548.3z"/>
	</g>
	<path fill="none" stroke="#494B4D" stroke-width="3" stroke-miterlimit="10" d="M556.7,565.9c0-0.2,0.1-0.3,0.1-0.5l24.5-97.7
		L546.2,562c-0.2,0.3-0.3,0.6-0.4,1c-0.1,0.5-0.2,0.9-0.2,1.4c0,3.1,2.5,5.6,5.6,5.6C553.8,570.1,556,568.3,556.7,565.9L556.7,565.9
		L556.7,565.9z"/>
	<g>
		<path fill="#FFFFFF" d="M641.3,494.7c-4.7-6-10-11.4-15.6-16.2l3.3-4.1c6,5.1,11.5,10.8,16.5,17.2L641.3,494.7z"/>
		<g>
			<path fill="#00A14B" d="M629.1,476.5c5.1,4.4,9.8,9.4,14.2,14.7l-1.8,1.4c-4.2-5.2-8.9-10-13.8-14.3L629.1,476.5 M628.7,472.2
				l-5.2,6.5c6.5,5.4,12.3,11.5,17.5,18.1l6.5-5C642,484.5,635.7,477.9,628.7,472.2L628.7,472.2z"/>
		</g>
	</g>
	<path fill="#00A14B" d="M659.9,511.3c-3.5-6.9-7.7-13.5-12.4-19.6l-6.5,5c4.4,5.7,8.3,11.8,11.5,18.1L659.9,511.3z"/>
	<path fill="#FFDE17" d="M580.3,447.9l-1.8,8c5.8,1.4,11.5,3.3,17,5.7l3.2-7.6C592.7,451.5,586.6,449.4,580.3,447.9z"/>
	<g>
		<path fill="#FFDE17" d="M600.2,458c7.4,3.4,14.4,7.5,20.9,12.2l-1.4,1.8c-6.3-4.6-13.2-8.6-20.4-11.9L600.2,458 M598.7,454
			l-3.2,7.6c8.8,3.8,17.2,8.6,24.8,14.5l5.1-6.5C617.2,463.3,608.2,458,598.7,454L598.7,454z"/>
	</g>
	<path fill="#FFDE17" d="M524,455.9l-0.9-4.1l-0.9-4c-10.2,2.5-20.1,6.4-29.4,11.5l4,7.2C505.3,461.9,514.5,458.3,524,455.9z"/>
	<g>
		<path fill="#FFDE17" d="M491.6,463.5l1.1,2c-3.4,2-6.8,4.2-9.9,6.5l-1.4-1.8C484.6,467.8,488.1,465.5,491.6,463.5 M492.8,459.4
			c-5.5,3-10.7,6.4-15.7,10.3l5.1,6.5c4.6-3.5,9.4-6.7,14.5-9.5L492.8,459.4L492.8,459.4z"/>
	</g>
	<g>
		<g>
			<path fill="#ED1C24" d="M473.4,476.5l1.4,1.8c-5,4.4-9.7,9.3-14,14.5l-1.8-1.3C463.4,486,468.3,480.9,473.4,476.5 M473.8,472.2
				c-7.1,5.8-13.5,12.5-19.1,19.8l6.6,4.9c5.2-6.7,11.1-12.9,17.6-18.3L473.8,472.2L473.8,472.2z"/>
		</g>
	</g>
	<path fill="#ED1C24" d="M442.6,511.3l7.4,3.6c3.2-6.3,7-12.3,11.4-18l-6.6-4.9C450.1,498.1,446,504.5,442.6,511.3z"/>
	<path fill="#ED1C24" d="M448.2,518.6l-7.4-3.6c-3.8,8.2-6.6,17-8.5,25.9l8,1.6C442.1,534.3,444.7,526.3,448.2,518.6z"/>
	<g>
		<g>
			<path fill="#ED1C24" d="M434.7,544.5l2.2,0.4c-1,5.3-1.6,10.7-1.8,16l-2.2,0C433,555.5,433.6,550,434.7,544.5 M432.3,540.9
				c-1.6,7.5-2.5,15.2-2.6,22.9l8.2,0c0.1-7.3,1-14.4,2.4-21.4L432.3,540.9L432.3,540.9z"/>
		</g>
	</g>
</g>
<g>
	<g>
		<path fill="#8861A9" d="M86.3,202.8c-17.2,0-31.1-14-31.1-31.1c0-17.2,14-31.1,31.1-31.1c17.2,0,31.1,14,31.1,31.1
			C117.4,188.9,103.4,202.8,86.3,202.8z M86.3,145.6c-14.4,0-26.1,11.7-26.1,26.1s11.7,26.1,26.1,26.1c14.4,0,26.1-11.7,26.1-26.1
			S100.7,145.6,86.3,145.6z"/>
	</g>
	<g>
		<path fill="#8861A9" d="M79.5,182.7l4.6-0.6v-18.3h-4.6v-3.1l10-1.8v23.2l4.6,0.6v3.2H79.5V182.7z"/>
	</g>
</g>
<g>
	<g>
		<path fill="#8861A9" d="M430.7,202.8c-17.2,0-31.1-14-31.1-31.1s14-31.1,31.1-31.1c17.2,0,31.1,14,31.1,31.1
			S447.9,202.8,430.7,202.8z M430.7,145.6c-14.4,0-26.1,11.7-26.1,26.1s11.7,26.1,26.1,26.1c14.4,0,26.1-11.7,26.1-26.1
			S445.1,145.6,430.7,145.6z"/>
	</g>
	<g>
		<path fill="#8861A9" d="M421,186v-3.5l8.7-9.4c1.3-1.4,2.2-2.7,2.7-3.7c0.5-1,0.8-1.9,0.8-2.8c0-1.1-0.3-2.1-0.9-2.8
			s-1.5-1.1-2.6-1.1c-1.2,0-2.2,0.4-2.8,1.3c-0.6,0.8-1,2-1,3.4h-5.3l0-0.1c-0.1-2.4,0.7-4.5,2.4-6.2c1.7-1.7,3.9-2.5,6.7-2.5
			c2.8,0,5,0.7,6.6,2.2s2.4,3.4,2.4,5.8c0,1.6-0.4,3.1-1.3,4.5c-0.9,1.4-2.4,3.2-4.5,5.4l-4.8,5.3l0,0.1h7l0.2-2.7h4.1v6.8H421z"/>
	</g>
</g>
<g>
	<g>
		<path fill="#8861A9" d="M772.8,202.8c-17.2,0-31.1-14-31.1-31.1s14-31.1,31.1-31.1c17.2,0,31.1,14,31.1,31.1
			S790,202.8,772.8,202.8z M772.8,145.6c-14.4,0-26.1,11.7-26.1,26.1s11.7,26.1,26.1,26.1c14.4,0,26.1-11.7,26.1-26.1
			S787.2,145.6,772.8,145.6z"/>
	</g>
	<g>
		<path fill="#8861A9" d="M768.9,170.1h3c1.3,0,2.2-0.3,2.9-1c0.6-0.7,0.9-1.6,0.9-2.8c0-1.1-0.3-2-0.9-2.6c-0.6-0.7-1.5-1-2.7-1
			c-1,0-1.9,0.3-2.6,0.9s-1,1.4-1,2.3h-5.3l0-0.1c-0.1-2.1,0.7-3.9,2.4-5.2s3.8-2.1,6.3-2.1c2.8,0,5,0.7,6.7,2
			c1.7,1.3,2.5,3.2,2.5,5.7c0,1.2-0.4,2.3-1.1,3.3s-1.8,1.9-3.1,2.5c1.5,0.5,2.6,1.3,3.4,2.4c0.8,1.1,1.2,2.4,1.2,3.8
			c0,2.5-0.9,4.4-2.7,5.8c-1.8,1.4-4.1,2.1-6.9,2.1c-2.5,0-4.7-0.7-6.5-2c-1.8-1.3-2.7-3.2-2.6-5.6l0-0.1h5.3c0,1,0.4,1.9,1.1,2.6
			c0.7,0.7,1.7,1,2.8,1c1.2,0,2.2-0.3,3-1c0.7-0.7,1.1-1.6,1.1-2.8c0-1.4-0.4-2.5-1.1-3.1c-0.7-0.7-1.8-1-3.1-1h-3V170.1z"/>
	</g>
</g>
<g>
	<g>
		<path fill="#8861A9" d="M772.8,638.5c-17.2,0-31.1-14-31.1-31.1c0-17.2,14-31.1,31.1-31.1c17.2,0,31.1,14,31.1,31.1
			C803.9,624.5,790,638.5,772.8,638.5z M772.8,581.3c-14.4,0-26.1,11.7-26.1,26.1s11.7,26.1,26.1,26.1c14.4,0,26.1-11.7,26.1-26.1
			S787.2,581.3,772.8,581.3z"/>
	</g>
	<g>
		<path fill="#8861A9" d="M778.1,610.6h3.1v3.6h-3.1v2.7l2.9,0.6v3.2h-11.2v-3.2l2.9-0.6v-2.7h-11l-0.3-2.7l11.2-17.9h5.5V610.6z
			 M766.5,610.6h6.2v-9.7l-0.1,0l-0.4,0.8L766.5,610.6z"/>
	</g>
</g>
<g>
	<g>
		<path fill="#8861A9" d="M423.1,638.5c-17.2,0-31.1-14-31.1-31.1c0-17.2,14-31.1,31.1-31.1c17.2,0,31.1,14,31.1,31.1
			C454.2,624.5,440.2,638.5,423.1,638.5z M423.1,581.3c-14.4,0-26.1,11.7-26.1,26.1s11.7,26.1,26.1,26.1c14.4,0,26.1-11.7,26.1-26.1
			S437.5,581.3,423.1,581.3z"/>
	</g>
	<g>
		<path fill="#8861A9" d="M427.5,600.8l-0.5-1.8h-7.3l-0.8,6.2c0.5-0.4,1.1-0.7,1.8-0.9s1.5-0.4,2.3-0.4c2.6,0,4.6,0.7,6,2.4
			c1.4,1.6,2.1,3.8,2.1,6.7c0,2.6-0.8,4.8-2.3,6.5c-1.6,1.7-3.8,2.6-6.8,2.6c-2.5,0-4.6-0.7-6.4-2s-2.6-3.2-2.6-5.6l0-0.1l5.2-0.3
			c0,1.2,0.3,2.1,1,2.8c0.7,0.7,1.6,1,2.7,1c1.3,0,2.2-0.5,2.8-1.4c0.6-0.9,0.9-2.1,0.9-3.5c0-1.6-0.3-2.8-1-3.7
			c-0.6-0.9-1.6-1.4-2.9-1.4c-1,0-1.8,0.2-2.4,0.6c-0.6,0.4-0.9,0.9-1.2,1.6l-4.8-0.3l1.6-15h15.5v6.2H427.5z"/>
	</g>
</g>
<g>
	<g>
		<path fill="#8861A9" d="M80.6,638.5c-17.2,0-31.1-14-31.1-31.1c0-17.2,14-31.1,31.1-31.1c17.2,0,31.1,14,31.1,31.1
			C111.7,624.5,97.7,638.5,80.6,638.5z M80.6,581.3c-14.4,0-26.1,11.7-26.1,26.1c0,14.4,11.7,26.1,26.1,26.1
			c14.4,0,26.1-11.7,26.1-26.1C106.7,593,95,581.3,80.6,581.3z"/>
	</g>
	<g>
		<path fill="#8861A9" d="M82.1,594.2c1,0,2,0.1,2.8,0.3c0.9,0.2,1.7,0.5,2.6,0.8l-0.9,4c-0.8-0.3-1.5-0.5-2.2-0.6
			c-0.7-0.1-1.4-0.2-2.3-0.2c-1.6,0-2.9,0.6-3.9,1.8c-1,1.2-1.5,2.9-1.5,5.2l0.1,0.1c0.6-0.6,1.4-1.1,2.3-1.5c0.9-0.4,2-0.5,3.1-0.5
			c2.4,0,4.3,0.9,5.7,2.6c1.4,1.7,2.1,3.9,2.1,6.6c0,2.7-0.8,5-2.5,6.7s-3.9,2.7-6.6,2.7c-2.8,0-5.2-1-7-2.9c-1.8-1.9-2.7-4.6-2.7-8
			v-4.8c0-3.8,1-6.8,3-8.9C76.3,595.3,78.9,594.2,82.1,594.2z M80.8,607.6c-1,0-1.9,0.2-2.6,0.5s-1.2,0.8-1.6,1.3v1.8
			c0,2.1,0.4,3.8,1.2,4.9c0.8,1.2,1.8,1.7,3.1,1.7c1.1,0,2-0.5,2.7-1.5c0.7-1,1-2.3,1-3.7c0-1.5-0.3-2.7-1-3.6S82,607.6,80.8,607.6z
			"/>
	</g>
</g>
<g>
	<defs>
		<rect id="SVGID_1_" x="689.3" y="735.4" width="377.3" height="33.9"/>
	</defs>
	<clipPath id="SVGID_2_">
		<use xlink:href="#SVGID_1_"  overflow="visible"/>
	</clipPath>
	<path clip-path="url(#SVGID_2_)" d="M690.6,757.2c-0.6,0-0.6-0.7-0.6-0.9c0-0.4,0.3-1.5,0.4-1.8c0.3-0.7,0.8-1.1,1.2-1.1
		c0.6,0,0.7,0.8,0.7,0.8s-0.5,2.1-0.5,2.1C691.7,756.6,691.2,757.2,690.6,757.2 M693.2,753.3c0,0,0-0.1-0.1-0.1
		c-0.1,0-0.5,0.4-0.6,0.6c-0.2-0.5-0.6-0.6-0.9-0.6c-1.1,0-2.2,1.4-2.2,2.7c0,0.9,0.6,1.5,1.2,1.5c0.4,0,0.8-0.2,1.1-0.6
		c-0.1,0.3-0.4,1.6-0.4,1.7c-0.1,0.2-0.1,0.3-0.7,0.3c-0.1,0-0.2,0-0.2,0.2c0,0,0,0.1,0.1,0.1c0.3,0,0.6,0,0.9,0c0.3,0,0.7,0,1,0
		c0.1,0,0.2,0,0.2-0.2c0-0.1-0.1-0.1-0.2-0.1c-0.4,0-0.4-0.1-0.4-0.1c0-0.1,0-0.1,0-0.2L693.2,753.3z"/>
	<path clip-path="url(#SVGID_2_)" d="M696,756.2c-0.2,0-0.3,0.2-0.3,0.4c0,0.2,0.1,0.2,0.2,0.2c0.1,0,0.4-0.1,0.4-0.4
		c0-0.4-0.5-0.6-0.9-0.6c-1,0-1.9,0.9-1.9,1.8c0,0.6,0.4,1.1,1.2,1.1c1.1,0,1.6-0.6,1.6-0.7c0,0-0.1-0.1-0.1-0.1c0,0-0.1,0-0.1,0.1
		c-0.5,0.6-1.3,0.6-1.4,0.6c-0.5,0-0.7-0.3-0.7-0.7c0-0.2,0.1-0.9,0.4-1.4c0.2-0.3,0.6-0.5,0.9-0.5C695.6,756,695.9,756,696,756.2"
		/>
	<path clip-path="url(#SVGID_2_)" d="M706,756c0.1,0,0.3,0,0.3-0.2c0-0.2-0.2-0.2-0.3-0.2h-5.5c-0.1,0-0.3,0-0.3,0.2
		c0,0.2,0.2,0.2,0.3,0.2H706 M706,754.2c0.1,0,0.3,0,0.3-0.2c0-0.2-0.2-0.2-0.3-0.2h-5.6c-0.1,0-0.3,0-0.3,0.2
		c0,0.2,0.2,0.2,0.3,0.2H706z"/>
	<path clip-path="url(#SVGID_2_)" d="M712.9,748.8c0.2,0.1,0.5,0.1,0.5,0.1c0.3,0,0.6-0.1,0.7-0.2c0.1-0.1,0.4-0.2,0.4-0.4
		c0-0.1-0.1-0.1-0.1-0.1c0,0,0,0-0.1,0c-0.2,0.1-0.5,0.1-0.8,0.1c-0.3,0-0.5-0.1-0.8-0.1c-0.1,0-0.1,0-0.1,0c-0.1,0-0.1,0.1-0.1,0.1
		v1.4c0,0.1,0,0.1,0.1,0.1c0.1,0,0.1,0,0.1-0.1c0.2-0.2,0.4-0.3,0.7-0.3c0.3,0,0.4,0.2,0.5,0.3c0.1,0.2,0.1,0.4,0.1,0.6
		c0,0.2,0,0.5-0.2,0.6c-0.2,0.2-0.5,0.2-0.6,0.2c-0.3,0-0.6-0.1-0.8-0.4c0.2,0,0.2-0.1,0.2-0.3c0-0.1-0.1-0.2-0.2-0.2
		c-0.1,0-0.3,0.1-0.3,0.3c0,0.5,0.4,0.9,1.1,0.9c0.7,0,1.3-0.5,1.3-1c0-0.5-0.4-1-1.1-1c-0.3,0-0.5,0.1-0.7,0.2V748.8"/>
	<path clip-path="url(#SVGID_2_)" d="M716.9,735.8c-0.3,0-0.3,0-0.3,0.3v5.1c0,0.2,0,0.3,0.2,0.3c0.2,0,0.2-0.2,0.2-0.3v-5.1h2.8
		c0.2,0,0.3,0,0.3-0.2c0-0.2-0.2-0.2-0.3-0.2H716.9"/>
	<path clip-path="url(#SVGID_2_)" d="M716.5,746.8c0,0.2,0,0.3,0.2,0.3c0.2,0,0.2-0.2,0.2-0.3v-5.3c0-0.2,0-0.3-0.2-0.3
		c-0.2,0-0.2,0.2-0.2,0.3V746.8"/>
	<path clip-path="url(#SVGID_2_)" d="M716.5,752.4c0,0.2,0,0.3,0.2,0.3c0.2,0,0.2-0.2,0.2-0.3v-5.3c0-0.2,0-0.3-0.2-0.3
		c-0.2,0-0.2,0.2-0.2,0.3V752.4"/>
	<path clip-path="url(#SVGID_2_)" d="M716.5,769.3c0.4,0,0.4-0.1,0.4-0.3v-16.2c0-0.2,0-0.3-0.2-0.3c-0.2,0-0.2,0.2-0.2,0.3V767h0
		l-4.2-12.7l-1.3,2.5l0.1,0.2l0.8-1.5L716.5,769.3"/>
	
		<line clip-path="url(#SVGID_2_)" fill="none" stroke="#000000" stroke-width="0.5572" stroke-miterlimit="10" x1="719.8" y1="736" x2="1065.9" y2="736"/>
	<path clip-path="url(#SVGID_2_)" d="M726.8,768.7c0,0,0,0-0.1-0.1c-0.9-1.1-1.6-2.3-2.2-3.6c-1.2-2.8-1.7-6.2-1.7-10.2
		c0-4,0.5-7.4,1.8-10.5c0.5-1.2,1.2-2.3,2.1-3.3c0,0,0,0,0-0.1c0-0.1-0.1-0.1-0.2-0.1c-0.1,0-0.2,0-0.2,0c0,0-0.6,0.6-1.3,1.6
		c-1.6,2.3-2.4,5-2.9,7.8c-0.2,1.5-0.3,3-0.3,4.5c0,3.5,0.4,7,1.9,10.2c0.7,1.4,1.5,2.7,2.5,3.6c0.1,0.1,0.1,0.1,0.2,0.1
		C726.8,768.8,726.8,768.8,726.8,768.7"/>
	<path clip-path="url(#SVGID_2_)" d="M731.7,745.2c0,0.1-0.1,0.2-0.1,0.3c0,0.2,0.1,0.2,0.2,0.2c0.1,0,0.2-0.1,0.3-0.1
		c0-0.1,0.1-0.3,0.1-0.4c0-0.1,0.1-0.4,0.1-0.6c0.1-0.1,0.1-0.3,0.1-0.4c0.1-0.3,0.1-0.3,0.3-0.6c0.2-0.3,0.5-0.6,1-0.6
		c0.4,0,0.4,0.3,0.4,0.4c0,0.4-0.3,1.1-0.4,1.4c-0.1,0.2-0.1,0.2-0.1,0.4c0,0.3,0.3,0.6,0.6,0.6c0.6,0,0.9-0.9,0.9-1
		c0-0.1-0.1-0.1-0.1-0.1c-0.1,0-0.1,0-0.1,0.1c-0.2,0.5-0.4,0.8-0.7,0.8c-0.1,0-0.2-0.1-0.2-0.2c0-0.1,0-0.2,0.2-0.5
		c0.1-0.2,0.3-0.9,0.3-1.3c0-0.6-0.5-0.7-0.8-0.7c-0.6,0-0.9,0.3-1.1,0.6c-0.1-0.4-0.4-0.6-0.7-0.6c-0.3,0-0.4,0.2-0.5,0.4
		c-0.1,0.2-0.2,0.6-0.2,0.7c0,0.1,0.1,0.1,0.1,0.1c0.1,0,0.1,0,0.1-0.2c0.1-0.4,0.2-0.7,0.5-0.7c0.2,0,0.2,0.1,0.2,0.3
		c0,0.1-0.1,0.4-0.1,0.5c0,0.2-0.1,0.4-0.1,0.6L731.7,745.2"/>
	<path clip-path="url(#SVGID_2_)" d="M738.6,761.4v-0.5c-1.2,0-1.5-0.4-1.5-1v-10c0-0.6,0.3-1,1.5-1v-0.5h-10.8v0.5
		c1.2,0,1.5,0.4,1.5,1v10c0,0.6-0.3,1-1.5,1v0.5h4.5v-0.5c-1.2,0-1.5-0.4-1.5-1v-11h4.9v11c0,0.6-0.3,1-1.5,1v0.5H738.6"/>
	<path clip-path="url(#SVGID_2_)" d="M728,767.5c0,0.1-0.1,0.2-0.1,0.3c0,0.3,0.3,0.6,0.6,0.6c0.7,0,0.9-0.9,0.9-1
		c0-0.1-0.1-0.1-0.1-0.1c-0.1,0-0.1,0.1-0.1,0.1c-0.2,0.5-0.4,0.8-0.7,0.8c-0.1,0-0.2-0.1-0.2-0.2c0-0.1,0-0.3,0.1-0.4
		c0.1-0.2,0.1-0.4,0.2-0.5c0.1-0.2,0.3-0.7,0.3-0.8c0-0.1,0.1-0.1,0.1-0.2c0-0.3-0.3-0.6-0.6-0.6c-0.7,0-1,0.9-1,1
		c0,0.1,0.1,0.1,0.1,0.1c0.1,0,0.1,0,0.1-0.1c0.2-0.6,0.5-0.8,0.7-0.8c0.1,0,0.2,0.1,0.2,0.2c0,0.1,0,0.2-0.2,0.6L728,767.5
		 M729.3,764.1c0-0.1-0.1-0.2-0.3-0.2c-0.2,0-0.4,0.2-0.4,0.4c0,0.1,0.1,0.2,0.3,0.2S729.3,764.3,729.3,764.1z"/>
	<path clip-path="url(#SVGID_2_)" d="M734.8,767.5c0.1,0,0.2,0,0.2-0.2s-0.2-0.2-0.2-0.2h-4.3c-0.1,0-0.2,0-0.2,0.2s0.2,0.2,0.2,0.2
		H734.8 M734.8,766c0.1,0,0.2,0,0.2-0.2s-0.2-0.2-0.2-0.2h-4.3c-0.1,0-0.2,0-0.2,0.2s0.2,0.2,0.2,0.2H734.8z"/>
	<path clip-path="url(#SVGID_2_)" d="M737.8,764.1c0-0.2,0-0.2-0.2-0.2c-0.4,0.4-1,0.4-1.3,0.4v0.2c0.1,0,0.6,0,0.9-0.2v3.3
		c0,0.2,0,0.3-0.7,0.3h-0.2v0.2c0.1,0,0.9,0,1.2,0c0.2,0,1,0,1.2,0V768h-0.2c-0.6,0-0.6-0.1-0.6-0.3V764.1"/>
	<path clip-path="url(#SVGID_2_)" d="M744.5,753.7c-0.1,0-0.3,0-0.4,0.1c-0.1,0.1-0.2,0.3-0.2,0.4c0,0.2,0.2,0.3,0.3,0.3
		c0.3,0,0.5-0.2,0.5-0.6c0-0.5-0.4-0.8-1.1-0.8c-1.3,0-2.5,1.3-2.5,2.6c0,0.8,0.5,1.6,1.5,1.6c1.3,0,2.1-1,2.1-1.1
		c0-0.1-0.1-0.1-0.1-0.1c-0.1,0-0.1,0-0.1,0.1c-0.7,0.9-1.7,0.9-1.9,0.9c-0.6,0-0.8-0.5-0.8-1c0-0.4,0.2-1.3,0.5-1.8
		c0.3-0.5,0.8-0.9,1.3-0.9C744,753.4,744.4,753.5,744.5,753.7"/>
	<path clip-path="url(#SVGID_2_)" d="M746.7,757.2c-0.4,0-0.8-0.3-0.8-1c0-0.5,0.2-1.5,0.5-1.9c0.5-0.7,1-0.9,1.2-0.9
		c0.6,0,0.8,0.4,0.8,1c0,0.4-0.2,1.3-0.5,1.9C747.7,756.9,747.2,757.2,746.7,757.2 M749.2,754.7c0-1-0.7-1.6-1.5-1.6
		c-1.2,0-2.5,1.3-2.5,2.6c0,0.9,0.6,1.6,1.5,1.6C748,757.4,749.2,756.1,749.2,754.7z"/>
	<path clip-path="url(#SVGID_2_)" d="M753.7,753.8c0-0.5-0.2-0.6-0.4-0.6c-0.2,0-0.4,0.2-0.4,0.4c0,0.1,0,0.2,0.1,0.3
		c0.2,0.2,0.3,0.4,0.3,0.7c0,0.4-0.6,2.5-1.7,2.5c-0.5,0-0.7-0.3-0.7-0.8c0-0.5,0.2-1.2,0.6-2c0.1-0.2,0.1-0.3,0.1-0.5
		c0-0.4-0.3-0.8-0.8-0.8c-0.9,0-1.2,1.4-1.2,1.4c0,0.1,0.1,0.1,0.1,0.1c0.1,0,0.1,0,0.2-0.2c0.3-0.9,0.7-1.2,0.9-1.2
		c0.1,0,0.2,0,0.2,0.3c0,0.2-0.1,0.5-0.2,0.7c-0.4,1.1-0.5,1.5-0.5,1.9c0,1,0.8,1.2,1.2,1.2C753.2,757.4,753.7,754.3,753.7,753.8"/>
	<path clip-path="url(#SVGID_2_)" d="M756.7,756.2c-0.2,0-0.3,0.2-0.3,0.4c0,0.2,0.1,0.2,0.2,0.2c0.1,0,0.4-0.1,0.4-0.4
		c0-0.4-0.5-0.6-0.9-0.6c-1,0-1.9,0.9-1.9,1.8c0,0.6,0.4,1.1,1.2,1.1c1.1,0,1.6-0.6,1.6-0.7c0,0-0.1-0.1-0.1-0.1c0,0-0.1,0-0.1,0.1
		c-0.5,0.6-1.3,0.6-1.4,0.6c-0.5,0-0.7-0.3-0.7-0.7c0-0.2,0.1-0.9,0.4-1.4c0.2-0.3,0.6-0.5,0.9-0.5C756.3,756,756.6,756,756.7,756.2
		"/>
	<path clip-path="url(#SVGID_2_)" d="M759.3,758.9C759.3,758.8,759.2,758.8,759.3,758.9c-0.2-0.1-0.2,0-0.2,0.1
		c-0.1,0.2-0.3,0.5-0.5,0.5c-0.1,0-0.1-0.1-0.1-0.2c0-0.1,0-0.1,0.1-0.2c0-0.1,0.1-0.2,0.1-0.2c0-0.1,0.2-0.5,0.3-0.7
		c0-0.1,0.1-0.2,0.1-0.2c0-0.2-0.2-0.4-0.5-0.4c-0.5,0-0.8,0.6-0.8,0.7c0,0.1,0.1,0.1,0.1,0.1c0.1,0,0.1,0,0.1-0.1
		c0.1-0.3,0.3-0.5,0.5-0.5c0.1,0,0.1,0.1,0.1,0.2c0,0,0,0.1,0,0.2c0,0.1-0.2,0.6-0.3,0.7c0,0.1,0,0.1-0.1,0.2c0,0.1-0.1,0.1-0.1,0.2
		c0,0.2,0.2,0.4,0.5,0.4C759,759.6,759.3,759,759.3,758.9 M759.1,756.6c0-0.1-0.1-0.2-0.2-0.2c-0.1,0-0.3,0.1-0.3,0.3
		c0,0.1,0.1,0.2,0.2,0.2C758.9,756.9,759.1,756.8,759.1,756.6z"/>
	<path clip-path="url(#SVGID_2_)" d="M765.8,754.9c0-3.5-0.4-7-1.9-10.2c-0.7-1.4-1.5-2.7-2.5-3.6c-0.1-0.1-0.1-0.1-0.2-0.1
		c-0.1,0-0.2,0-0.2,0.1c0,0,0,0.1,0.1,0.1c0.9,1.1,1.6,2.3,2.2,3.6c1.2,2.8,1.7,6.2,1.7,10.2c0,4-0.4,7.4-1.8,10.5
		c-0.5,1.2-1.2,2.3-2.1,3.3c0,0,0,0.1,0,0.1c0,0.1,0.1,0.1,0.2,0.1c0.1,0,0.2,0,0.2,0s0.6-0.6,1.3-1.6c1.6-2.3,2.4-5,2.8-7.8
		C765.7,757.9,765.8,756.4,765.8,754.9"/>
	<path clip-path="url(#SVGID_2_)" d="M771.4,737.8c0-0.1,0-0.1-0.2-0.1c-0.3,0.3-0.9,0.3-1,0.3h-0.1v0.2h0.1c0.1,0,0.4,0,0.7-0.1
		v2.3c0,0.2,0,0.2-0.5,0.2h-0.2v0.2c0.2,0,0.7,0,0.9,0c0.3,0,0.7,0,0.9,0v-0.2h-0.2c-0.5,0-0.5,0-0.5-0.2V737.8"/>
	
		<line clip-path="url(#SVGID_2_)" fill="none" stroke="#000000" stroke-width="0.4746" stroke-miterlimit="10" x1="769.1" y1="741.6" x2="773.2" y2="741.6"/>
	<path clip-path="url(#SVGID_2_)" d="M770,745.1c0,0.1-0.1,0.3-0.1,0.3c0,0.1,0.1,0.2,0.2,0.2c0.1,0,0.2,0,0.2-0.2
		c0,0,0.1-0.2,0.1-0.4c0.2-0.6,0.2-0.6,0.2-0.7c0.1-0.1,0.4-0.8,1-0.8c0.2,0,0.3,0.1,0.3,0.3c0,0.3-0.2,0.7-0.3,1
		c0,0.1-0.1,0.1-0.1,0.2c0,0.2,0.2,0.4,0.5,0.4c0.5,0,0.8-0.6,0.8-0.7c0-0.1-0.1-0.1-0.1-0.1c-0.1,0-0.1,0-0.1,0.1
		c-0.1,0.3-0.3,0.5-0.5,0.5c-0.1,0-0.1-0.1-0.1-0.2c0-0.1,0-0.2,0.1-0.2c0.1-0.2,0.3-0.7,0.3-1c0-0.3-0.2-0.6-0.7-0.6
		c-0.4,0-0.7,0.3-0.9,0.5c0-0.4-0.4-0.5-0.6-0.5c-0.5,0-0.6,0.7-0.6,0.7c0,0.1,0.1,0.1,0.1,0.1c0.1,0,0.1,0,0.1-0.1
		c0.1-0.3,0.2-0.6,0.4-0.6c0.2,0,0.2,0.1,0.2,0.2c0,0.1,0,0.2-0.1,0.4c0,0.1-0.1,0.3-0.1,0.4L770,745.1"/>
	<path clip-path="url(#SVGID_2_)" d="M783.4,768.7c0,0,0,0-0.1-0.1c-0.9-1.1-1.6-2.3-2.2-3.6c-1.2-2.8-1.7-6.2-1.7-10.2
		c0-4,0.5-7.4,1.8-10.5c0.5-1.2,1.2-2.3,2.1-3.3c0,0,0,0,0-0.1c0-0.1-0.1-0.1-0.2-0.1c-0.1,0-0.2,0-0.2,0c0,0-0.6,0.6-1.3,1.6
		c-1.6,2.3-2.4,5-2.9,7.8c-0.2,1.5-0.3,3-0.3,4.5c0,3.5,0.4,7,1.9,10.2c0.7,1.4,1.5,2.7,2.5,3.6c0.1,0.1,0.1,0.1,0.2,0.1
		C783.3,768.8,783.4,768.8,783.4,768.7"/>
	<path clip-path="url(#SVGID_2_)" d="M788.2,745.2c0,0.1-0.1,0.2-0.1,0.3c0,0.2,0.1,0.2,0.2,0.2c0.1,0,0.2-0.1,0.3-0.1
		c0-0.1,0.1-0.3,0.1-0.4c0-0.1,0.1-0.4,0.1-0.6c0-0.1,0.1-0.3,0.1-0.4c0.1-0.3,0.1-0.3,0.3-0.6c0.2-0.3,0.5-0.6,1-0.6
		c0.4,0,0.4,0.3,0.4,0.4c0,0.4-0.3,1.1-0.4,1.4c-0.1,0.2-0.1,0.2-0.1,0.4c0,0.3,0.3,0.6,0.6,0.6c0.7,0,0.9-0.9,0.9-1
		c0-0.1-0.1-0.1-0.1-0.1c-0.1,0-0.1,0-0.1,0.1c-0.2,0.5-0.4,0.8-0.7,0.8c-0.1,0-0.2-0.1-0.2-0.2c0-0.1,0-0.2,0.2-0.5
		c0.1-0.2,0.3-0.9,0.3-1.3c0-0.6-0.5-0.7-0.8-0.7c-0.6,0-0.9,0.3-1.1,0.6c0-0.4-0.4-0.6-0.7-0.6c-0.3,0-0.4,0.2-0.5,0.4
		c-0.1,0.2-0.2,0.6-0.2,0.7c0,0.1,0.1,0.1,0.1,0.1c0.1,0,0.1,0,0.1-0.2c0.1-0.4,0.2-0.7,0.5-0.7c0.2,0,0.2,0.1,0.2,0.3
		c0,0.1-0.1,0.4-0.1,0.5c0,0.2-0.1,0.4-0.1,0.6L788.2,745.2"/>
	<path clip-path="url(#SVGID_2_)" d="M795.1,761.4v-0.5c-1.2,0-1.5-0.4-1.5-1v-10c0-0.6,0.3-1,1.5-1v-0.5h-10.8v0.5
		c1.2,0,1.5,0.4,1.5,1v10c0,0.6-0.3,1-1.5,1v0.5h4.5v-0.5c-1.2,0-1.5-0.4-1.5-1v-11h4.9v11c0,0.6-0.3,1-1.5,1v0.5H795.1"/>
	<path clip-path="url(#SVGID_2_)" d="M784.5,767.5c0,0.1-0.1,0.2-0.1,0.3c0,0.3,0.3,0.6,0.6,0.6c0.7,0,0.9-0.9,0.9-1
		c0-0.1-0.1-0.1-0.1-0.1c-0.1,0-0.1,0.1-0.1,0.1c-0.1,0.5-0.4,0.8-0.7,0.8c-0.1,0-0.2-0.1-0.2-0.2c0-0.1,0.1-0.3,0.1-0.4
		c0.1-0.2,0.1-0.4,0.2-0.5c0.1-0.2,0.3-0.7,0.3-0.8c0-0.1,0-0.1,0-0.2c0-0.3-0.3-0.6-0.6-0.6c-0.7,0-0.9,0.9-0.9,1
		c0,0.1,0.1,0.1,0.1,0.1c0.1,0,0.1,0,0.1-0.1c0.2-0.6,0.5-0.8,0.7-0.8c0.1,0,0.2,0.1,0.2,0.2c0,0.1,0,0.2-0.2,0.6L784.5,767.5
		 M785.8,764.1c0-0.1-0.1-0.2-0.2-0.2c-0.2,0-0.4,0.2-0.4,0.4c0,0.1,0.1,0.2,0.3,0.2S785.8,764.3,785.8,764.1z"/>
	<path clip-path="url(#SVGID_2_)" d="M791.4,767.5c0.1,0,0.2,0,0.2-0.2s-0.2-0.2-0.2-0.2h-4.3c-0.1,0-0.2,0-0.2,0.2s0.2,0.2,0.2,0.2
		H791.4 M791.4,766c0.1,0,0.2,0,0.2-0.2s-0.2-0.2-0.2-0.2h-4.3c-0.1,0-0.2,0-0.2,0.2s0.2,0.2,0.2,0.2H791.4z"/>
	<path clip-path="url(#SVGID_2_)" d="M794.3,764.1c0-0.2,0-0.2-0.2-0.2c-0.4,0.4-1,0.4-1.3,0.4v0.2c0.2,0,0.6,0,0.9-0.2v3.3
		c0,0.2,0,0.3-0.7,0.3h-0.2v0.2c0.1,0,0.9,0,1.2,0c0.2,0,1,0,1.2,0V768h-0.2c-0.7,0-0.7-0.1-0.7-0.3V764.1"/>
	<path clip-path="url(#SVGID_2_)" d="M798.1,756.7c0,0.1-0.1,0.4-0.1,0.4c0,0.2,0.1,0.2,0.3,0.2c0.1,0,0.3-0.1,0.3-0.2
		c0,0,0.1-0.5,0.2-0.7l0.2-0.8c0.1-0.2,0.1-0.4,0.1-0.6c0.1-0.2,0.1-0.4,0.1-0.5c0.1-0.3,0.6-1.1,1.5-1.1c0.4,0,0.5,0.4,0.5,0.7
		c0,0.2-0.1,0.5-0.1,0.8l-0.3,1.1l-0.2,0.7c0,0.2-0.1,0.5-0.1,0.6c0,0.2,0.1,0.2,0.3,0.2c0.3,0,0.3-0.2,0.4-0.5
		c0.1-0.5,0.5-1.9,0.6-2.2c0-0.1,0.5-1.2,1.5-1.2c0.4,0,0.5,0.3,0.5,0.7c0,0.5-0.4,1.6-0.6,2.1c-0.1,0.2-0.1,0.3-0.1,0.5
		c0,0.4,0.3,0.7,0.8,0.7c0.9,0,1.2-1.4,1.2-1.4c0-0.1-0.1-0.1-0.1-0.1c-0.1,0-0.1,0-0.1,0.2c-0.1,0.5-0.4,1.2-0.9,1.2
		c-0.2,0-0.2-0.1-0.2-0.3c0-0.2,0.1-0.5,0.2-0.7c0.2-0.5,0.6-1.5,0.6-2c0-0.6-0.4-1-1.1-1c-0.7,0-1.2,0.4-1.5,0.9
		c0-0.1-0.1-0.4-0.3-0.7c-0.2-0.2-0.5-0.2-0.8-0.2c-0.8,0-1.3,0.6-1.4,0.8c-0.1-0.5-0.4-0.8-0.9-0.8c-0.4,0-0.6,0.4-0.7,0.5
		c-0.2,0.3-0.3,0.9-0.3,0.9c0,0.1,0.1,0.1,0.1,0.1c0.1,0,0.1,0,0.2-0.2c0.2-0.7,0.3-1.1,0.7-1.1c0.1,0,0.3,0.1,0.3,0.4
		c0,0.2,0,0.3-0.1,0.8L798.1,756.7"/>
	<path clip-path="url(#SVGID_2_)" d="M808.3,756.2c0,0.2,0,0.2-0.2,0.3c-0.4,0.5-0.8,0.7-1,0.7c-0.5,0-0.6-0.5-0.6-0.9
		c0-0.5,0.3-1.6,0.5-2c0.3-0.5,0.7-0.9,1.1-0.9c0.6,0,0.7,0.8,0.7,0.8s0,0.1,0,0.2L808.3,756.2 M808.9,753.8
		c-0.2-0.3-0.4-0.6-0.9-0.6c-1.1,0-2.2,1.4-2.2,2.7c0,0.9,0.5,1.5,1.2,1.5c0.2,0,0.7,0,1.2-0.7c0.1,0.4,0.4,0.7,0.8,0.7
		c0.3,0,0.6-0.2,0.7-0.5c0.2-0.3,0.3-0.9,0.3-0.9c0-0.1-0.1-0.1-0.1-0.1c-0.1,0-0.1,0-0.1,0.2c-0.2,0.6-0.3,1.2-0.7,1.2
		c-0.2,0-0.3-0.2-0.3-0.4c0-0.2,0-0.3,0.1-0.7c0.1-0.4,0.1-0.5,0.2-0.8l0.3-1.3c0.1-0.2,0.1-0.3,0.1-0.3c0-0.1-0.1-0.2-0.3-0.2
		C809.1,753.4,809,753.6,808.9,753.8L808.9,753.8z"/>
	<path clip-path="url(#SVGID_2_)" d="M812.5,754.4c0.1-0.2,0.3-0.5,0.5-0.7c0.3-0.3,0.6-0.4,0.7-0.4c0.4,0,0.6,0.3,0.6,0.9
		c0,0.6-0.3,1.6-0.5,2c-0.3,0.7-0.8,1-1.1,1c-0.6,0-0.7-0.8-0.7-0.8c0,0,0-0.1,0-0.2L812.5,754.4 M810.8,758.4
		c-0.1,0.3-0.1,0.4-0.5,0.4c-0.1,0-0.2,0-0.2,0.2c0,0.1,0,0.1,0.1,0.1c0.2,0,0.5,0,0.8,0c0.3,0,0.6,0,0.9,0c0.1,0,0.2,0,0.2-0.2
		c0-0.1-0.1-0.1-0.2-0.1c-0.5,0-0.5-0.1-0.5-0.1c0-0.1,0.4-1.6,0.5-1.9c0.1,0.3,0.4,0.6,0.9,0.6c1.1,0,2.2-1.4,2.2-2.7
		c0-0.9-0.5-1.5-1.2-1.5c-0.5,0-0.9,0.3-1.2,0.7c-0.1-0.5-0.5-0.7-0.8-0.7c-0.4,0-0.6,0.4-0.7,0.5c-0.2,0.3-0.3,0.9-0.3,0.9
		c0,0.1,0.1,0.1,0.1,0.1c0.1,0,0.1,0,0.2-0.2c0.2-0.7,0.3-1.1,0.7-1.1c0.2,0,0.3,0.1,0.3,0.4c0,0.2,0,0.3-0.1,0.5L810.8,758.4z"/>
	<path clip-path="url(#SVGID_2_)" d="M816.7,757.2c-0.6,0-0.6-0.7-0.6-0.9c0-0.4,0.3-1.5,0.4-1.8c0.3-0.7,0.8-1.1,1.2-1.1
		c0.6,0,0.7,0.8,0.7,0.8s-0.5,2.1-0.5,2.1C817.8,756.6,817.2,757.2,816.7,757.2 M819.3,753.3c0,0,0-0.1-0.1-0.1
		c-0.1,0-0.5,0.4-0.6,0.6c-0.2-0.5-0.6-0.6-0.9-0.6c-1.1,0-2.2,1.4-2.2,2.7c0,0.9,0.6,1.5,1.2,1.5c0.4,0,0.8-0.2,1.1-0.6
		c-0.1,0.3-0.4,1.6-0.4,1.7c-0.1,0.2-0.1,0.3-0.7,0.3c-0.1,0-0.2,0-0.2,0.2c0,0,0,0.1,0.1,0.1c0.3,0,0.6,0,0.9,0c0.3,0,0.6,0,1,0
		c0,0,0.2,0,0.2-0.2c0-0.1-0.1-0.1-0.2-0.1c-0.4,0-0.4-0.1-0.4-0.1c0-0.1,0-0.1,0-0.2L819.3,753.3L819.3,753.3z"/>
	<path clip-path="url(#SVGID_2_)" d="M822.2,756.2c-0.2,0-0.3,0.2-0.3,0.4c0,0.2,0.1,0.2,0.2,0.2c0.2,0,0.4-0.1,0.4-0.4
		c0-0.4-0.5-0.6-0.9-0.6c-1,0-1.9,0.9-1.9,1.8c0,0.6,0.4,1.1,1.2,1.1c1.1,0,1.6-0.6,1.6-0.7c0,0-0.1-0.1-0.1-0.1
		c-0.1,0-0.1,0-0.1,0.1c-0.5,0.6-1.3,0.6-1.4,0.6c-0.5,0-0.7-0.3-0.7-0.7c0-0.2,0.1-0.9,0.4-1.4c0.2-0.3,0.6-0.5,0.9-0.5
		C821.7,756,822,756,822.2,756.2"/>
	<path clip-path="url(#SVGID_2_)" d="M824.7,758.9c0-0.1-0.1-0.1-0.1-0.1c-0.1,0-0.1,0-0.1,0.1c-0.1,0.2-0.3,0.5-0.5,0.5
		c-0.1,0-0.1-0.1-0.1-0.2c0-0.1,0-0.1,0.1-0.2c0-0.1,0.1-0.2,0.1-0.2c0-0.1,0.2-0.5,0.3-0.7c0-0.1,0.1-0.2,0.1-0.2
		c0-0.2-0.2-0.4-0.5-0.4c-0.5,0-0.8,0.6-0.8,0.7c0,0.1,0.1,0.1,0.1,0.1c0.1,0,0.1,0,0.1-0.1c0.1-0.3,0.3-0.5,0.5-0.5
		c0.1,0,0.1,0.1,0.1,0.2c0,0,0,0.1,0,0.2c0,0.1-0.2,0.6-0.3,0.7c0,0.1,0,0.1-0.1,0.2c0,0.1-0.1,0.1-0.1,0.2c0,0.2,0.2,0.4,0.5,0.4
		C824.4,759.6,824.7,759,824.7,758.9 M824.4,756.6c0-0.1-0.1-0.2-0.2-0.2c-0.1,0-0.3,0.1-0.3,0.3c0,0.1,0.1,0.2,0.2,0.2
		C824.3,756.9,824.4,756.8,824.4,756.6z"/>
	<path clip-path="url(#SVGID_2_)" d="M831.2,754.9c0-3.5-0.4-7-1.9-10.2c-0.7-1.4-1.5-2.7-2.5-3.6c-0.1-0.1-0.1-0.1-0.2-0.1
		c-0.1,0-0.2,0-0.2,0.1c0,0,0,0.1,0.1,0.1c0.9,1.1,1.6,2.3,2.2,3.6c1.2,2.8,1.7,6.2,1.7,10.2c0,4-0.4,7.4-1.8,10.5
		c-0.6,1.2-1.2,2.3-2.1,3.3c0,0,0,0.1,0,0.1c0,0.1,0.1,0.1,0.2,0.1c0.1,0,0.1,0,0.2,0c0,0,0.6-0.6,1.3-1.6c1.6-2.3,2.4-5,2.8-7.8
		C831.1,757.9,831.2,756.4,831.2,754.9"/>
	<path clip-path="url(#SVGID_2_)" d="M836.9,737.8c0-0.1,0-0.1-0.2-0.1c-0.3,0.3-0.9,0.3-0.9,0.3h-0.1v0.2h0.1c0.1,0,0.4,0,0.7-0.1
		v2.3c0,0.2,0,0.2-0.5,0.2h-0.2v0.2c0.3,0,0.7,0,0.9,0c0.3,0,0.7,0,1,0v-0.2h-0.2c-0.5,0-0.5,0-0.5-0.2V737.8"/>
	
		<line clip-path="url(#SVGID_2_)" fill="none" stroke="#000000" stroke-width="0.4746" stroke-miterlimit="10" x1="834.5" y1="741.6" x2="838.6" y2="741.6"/>
	<path clip-path="url(#SVGID_2_)" d="M835.5,745.1c0,0.1-0.1,0.3-0.1,0.3c0,0.1,0.1,0.2,0.2,0.2c0.1,0,0.2,0,0.2-0.2
		c0,0,0.1-0.2,0.1-0.4c0.2-0.6,0.2-0.6,0.2-0.7c0.1-0.1,0.4-0.8,1-0.8c0.2,0,0.3,0.1,0.3,0.3c0,0.3-0.2,0.7-0.3,1c0,0.1,0,0.1,0,0.2
		c0,0.2,0.2,0.4,0.5,0.4c0.5,0,0.8-0.6,0.8-0.7c0-0.1-0.1-0.1-0.1-0.1c-0.1,0-0.1,0-0.1,0.1c-0.1,0.3-0.3,0.5-0.5,0.5
		c-0.1,0-0.1-0.1-0.1-0.2c0-0.1,0-0.2,0.1-0.2c0.1-0.2,0.3-0.7,0.3-1c0-0.3-0.2-0.6-0.7-0.6c-0.4,0-0.7,0.3-0.9,0.5
		c0-0.4-0.4-0.5-0.6-0.5c-0.5,0-0.6,0.7-0.6,0.7c0,0.1,0.1,0.1,0.1,0.1c0.1,0,0.1,0,0.1-0.1c0.1-0.3,0.2-0.6,0.4-0.6
		c0.2,0,0.2,0.1,0.2,0.2c0,0.1-0.1,0.2-0.1,0.4c0,0.1-0.1,0.3-0.1,0.4L835.5,745.1"/>
	<path clip-path="url(#SVGID_2_)" d="M844.8,759.5c0,0,0-0.1-0.2-0.2c-1.2-1.2-1.5-2.9-1.5-4.4c0-1.6,0.4-3.2,1.5-4.4
		c0.1-0.1,0.1-0.1,0.1-0.2c0-0.1,0-0.1-0.1-0.1c-0.1,0-0.9,0.6-1.5,1.8c-0.5,1-0.6,2-0.6,2.8c0,0.7,0.1,1.8,0.6,2.9
		c0.6,1.1,1.4,1.7,1.4,1.7C844.8,759.6,844.8,759.6,844.8,759.5"/>
	<path clip-path="url(#SVGID_2_)" d="M848.1,751.3c0-0.2,0-0.2-0.2-0.2c-0.6,0.6-1.4,0.6-1.7,0.6v0.3c0.2,0,0.7,0,1.2-0.2v4.8
		c0,0.3,0,0.5-0.9,0.5h-0.3v0.3c0.3,0,1.1,0,1.5,0c0.4,0,1.2,0,1.5,0V757h-0.3c-0.8,0-0.9-0.1-0.9-0.5V751.3"/>
	<path clip-path="url(#SVGID_2_)" d="M858.2,755.1c0.2,0,0.3,0,0.3-0.2c0-0.2-0.2-0.2-0.3-0.2h-5c-0.2,0-0.3,0-0.3,0.2
		c0,0.2,0.2,0.2,0.3,0.2H858.2"/>
	<path clip-path="url(#SVGID_2_)" d="M864.7,754.2c-0.1,0.4-0.3,1.2-0.6,1.9c-0.3,0.6-0.7,1.1-1.1,1.1c-0.3,0-0.5-0.3-0.5-1.1
		c0-0.4,0.1-0.9,0.3-1.8H864.7 M862.8,753.9c0.2-0.6,0.3-1.3,0.7-2c0.2-0.5,0.6-1,1-1c0.5,0,0.5,0.6,0.5,1.1c0,0.5-0.1,0.9-0.3,1.8
		H862.8z M865.7,752.6c0-0.6-0.2-1.9-1.1-1.9c-1.3,0-2.7,2.6-2.7,4.7c0,0.9,0.3,1.9,1.1,1.9C864.3,757.4,865.7,754.7,865.7,752.6z"
		/>
	<path clip-path="url(#SVGID_2_)" d="M866.6,758.3c0,0.1-0.1,0.2-0.1,0.3c0,0.2,0.1,0.2,0.2,0.2c0.1,0,0.2-0.1,0.2-0.1
		c0-0.1,0.1-0.3,0.1-0.4c0-0.1,0.1-0.4,0.1-0.6c0.1-0.1,0.1-0.3,0.1-0.4c0.1-0.3,0.1-0.3,0.3-0.6c0.2-0.3,0.5-0.6,1-0.6
		c0.4,0,0.4,0.3,0.4,0.5c0,0.4-0.3,1.1-0.4,1.4c-0.1,0.2-0.1,0.2-0.1,0.4c0,0.3,0.3,0.6,0.6,0.6c0.6,0,0.9-0.9,0.9-1
		c0-0.1-0.1-0.1-0.1-0.1c-0.1,0-0.1,0-0.1,0.1c-0.2,0.5-0.4,0.8-0.7,0.8c-0.1,0-0.2-0.1-0.2-0.2c0-0.1,0-0.2,0.1-0.5
		c0.1-0.2,0.4-0.9,0.4-1.3c0-0.6-0.5-0.7-0.9-0.7c-0.6,0-0.9,0.3-1.1,0.6c-0.1-0.4-0.4-0.6-0.7-0.6s-0.4,0.2-0.5,0.3
		c-0.1,0.2-0.2,0.6-0.2,0.7c0,0.1,0.1,0.1,0.1,0.1c0.1,0,0.1,0,0.1-0.2c0.1-0.4,0.2-0.7,0.5-0.7c0.2,0,0.2,0.1,0.2,0.3
		c0,0.1-0.1,0.4-0.1,0.5c-0.1,0.2-0.1,0.4-0.2,0.6L866.6,758.3"/>
	<path clip-path="url(#SVGID_2_)" d="M873.5,755c0-0.7-0.1-1.8-0.6-2.9c-0.6-1.1-1.4-1.7-1.5-1.7c-0.1,0-0.1,0-0.1,0.1
		c0,0,0,0.1,0.2,0.2c0.9,0.9,1.4,2.4,1.4,4.3c0,1.6-0.3,3.2-1.5,4.4c-0.1,0.1-0.1,0.1-0.1,0.2c0,0.1,0,0.1,0.1,0.1
		c0.1,0,0.9-0.6,1.5-1.8C873.4,756.8,873.5,755.7,873.5,755"/>
	<path clip-path="url(#SVGID_2_)" d="M883.1,768.7c0,0,0,0-0.1-0.1c-0.9-1.1-1.6-2.3-2.2-3.6c-1.2-2.8-1.7-6.2-1.7-10.2
		c0-4,0.5-7.4,1.8-10.5c0.5-1.2,1.2-2.3,2.1-3.3c0,0,0,0,0-0.1c0-0.1-0.1-0.1-0.2-0.1c-0.1,0-0.2,0-0.2,0c0,0-0.6,0.6-1.3,1.6
		c-1.6,2.3-2.4,5-2.9,7.8c-0.2,1.5-0.3,3-0.3,4.5c0,3.5,0.4,7,1.9,10.2c0.7,1.4,1.5,2.7,2.5,3.6c0.1,0.1,0.1,0.1,0.2,0.1
		C883,768.8,883.1,768.8,883.1,768.7"/>
	<path clip-path="url(#SVGID_2_)" d="M886.1,751.3c0-0.2,0-0.2-0.2-0.2c-0.6,0.6-1.4,0.6-1.7,0.6v0.3c0.2,0,0.7,0,1.2-0.2v4.8
		c0,0.3,0,0.5-0.9,0.5h-0.3v0.3c0.3,0,1.1,0,1.5,0c0.4,0,1.2,0,1.5,0V757H887c-0.8,0-0.9-0.1-0.9-0.5V751.3"/>
	<path clip-path="url(#SVGID_2_)" d="M896.3,755.1c0.2,0,0.3,0,0.3-0.2c0-0.2-0.2-0.2-0.3-0.2h-5c-0.2,0-0.3,0-0.3,0.2
		c0,0.2,0.2,0.2,0.3,0.2H896.3"/>
	<path clip-path="url(#SVGID_2_)" d="M903.9,753.1v-0.4c-1,0-1-0.4-1-0.7v-7.8h4v7.8c0,0.3,0,0.7-1,0.7v0.4h2.8v-0.4
		c-1,0-1-0.4-1-0.7V745c0-0.3,0-0.7,1-0.7v-0.4h-7.7v0.4c0.9,0,0.9,0.4,0.9,0.7v7.1c0,0.3,0,0.7-0.9,0.7v0.4H903.9"/>
	<path clip-path="url(#SVGID_2_)" d="M913.3,743.9c0.8-0.2,1.5-0.7,1.5-1.2c0-0.6-0.7-1-1.6-1h-2c-0.1,0-0.2,0-0.2,0.1
		c0,0.1,0.1,0.1,0.2,0.1c0,0,0.1,0,0.2,0c0.1,0,0.1,0,0.1,0.1c0,0,0,0,0,0.1l-0.9,3.5c-0.1,0.2-0.1,0.3-0.6,0.3
		c-0.1,0-0.2,0-0.2,0.1c0,0.1,0.1,0.1,0.1,0.1c0.1,0,0.3,0,0.4,0c0.1,0,0.3,0,0.4,0c0.1,0,0.3,0,0.4,0c0.1,0,0.3,0,0.4,0
		c0,0,0.1,0,0.1-0.1c0-0.1-0.1-0.1-0.2-0.1c-0.1,0-0.1,0-0.2,0c-0.1,0-0.1,0-0.1-0.1c0,0,0,0,0-0.1l0.4-1.7h0.9
		c0.6,0,0.8,0.3,0.8,0.6c0,0.1-0.1,0.3-0.1,0.5c-0.1,0.3-0.1,0.4-0.1,0.5c0,0.5,0.5,0.7,1,0.7c0.6,0,0.9-0.6,0.9-0.8
		c0,0,0-0.1-0.1-0.1c-0.1,0-0.1,0.1-0.1,0.1c-0.1,0.3-0.3,0.6-0.6,0.6c-0.2,0-0.3-0.1-0.3-0.4c0-0.2,0-0.5,0.1-0.7
		c0-0.2,0-0.2,0-0.3c0-0.1,0-0.3-0.2-0.5C913.6,744,913.4,744,913.3,743.9 M912.1,742.1c0-0.2,0.1-0.2,0.2-0.2h0.4
		c0.6,0,1.4,0,1.4,0.7c0,0.3-0.1,0.7-0.4,0.9c-0.3,0.2-0.7,0.3-1.1,0.3h-0.9L912.1,742.1z"/>
	<path clip-path="url(#SVGID_2_)" d="M910.2,752.8c0,0.1-0.1,0.2-0.1,0.3c0,0.3,0.3,0.6,0.6,0.6c0.7,0,0.9-0.9,0.9-1
		c0-0.1-0.1-0.1-0.1-0.1c-0.1,0-0.1,0-0.1,0.1c-0.2,0.5-0.4,0.8-0.7,0.8c-0.1,0-0.2-0.1-0.2-0.2c0-0.2,0-0.3,0.1-0.4
		c0.1-0.2,0.1-0.4,0.2-0.5c0.1-0.2,0.3-0.7,0.3-0.8c0-0.1,0.1-0.1,0.1-0.2c0-0.3-0.3-0.6-0.6-0.6c-0.7,0-1,0.9-1,1
		c0,0.1,0.1,0.1,0.1,0.1c0.1,0,0.1,0,0.1-0.1c0.2-0.6,0.5-0.8,0.7-0.8c0.1,0,0.2,0.1,0.2,0.2c0,0.2,0,0.2-0.2,0.7L910.2,752.8
		 M911.5,749.5c0-0.1-0.1-0.2-0.2-0.2c-0.2,0-0.4,0.2-0.4,0.4c0,0.1,0.1,0.2,0.3,0.2C911.3,749.9,911.5,749.7,911.5,749.5z"/>
	<path clip-path="url(#SVGID_2_)" d="M917,752.9c0.1,0,0.2,0,0.2-0.2c0-0.2-0.2-0.2-0.2-0.2h-4.3c-0.1,0-0.2,0-0.2,0.2
		c0,0.2,0.2,0.2,0.2,0.2H917 M917,751.4c0.1,0,0.2,0,0.2-0.2c0-0.2-0.2-0.2-0.2-0.2h-4.3c-0.1,0-0.2,0-0.2,0.2
		c0,0.2,0.2,0.2,0.2,0.2H917z"/>
	<path clip-path="url(#SVGID_2_)" d="M919.9,749.5c0-0.2,0-0.2-0.2-0.2c-0.4,0.4-1,0.4-1.3,0.4v0.2c0.2,0,0.6,0,0.9-0.2v3.3
		c0,0.2,0,0.3-0.7,0.3h-0.2v0.2c0.1,0,0.9,0,1.2,0c0.2,0,1,0,1.2,0v-0.2h-0.2c-0.6,0-0.6-0.1-0.6-0.3V749.5"/>
	<path clip-path="url(#SVGID_2_)" d="M926.2,744.9c0-0.2,0-0.2-0.2-0.2c-0.6,0.6-1.4,0.6-1.7,0.6v0.3c0.2,0,0.7,0,1.2-0.2v4.8
		c0,0.3,0,0.4-0.9,0.4h-0.3v0.3c0.3,0,1.1,0,1.5,0c0.4,0,1.2,0,1.5,0v-0.3h-0.3c-0.8,0-0.9-0.1-0.9-0.4V744.9"/>
	<path clip-path="url(#SVGID_2_)" d="M936.3,748.7c0.2,0,0.3,0,0.3-0.2c0-0.2-0.2-0.2-0.3-0.2h-5c-0.2,0-0.3,0-0.3,0.2
		c0,0.2,0.2,0.2,0.3,0.2H936.3"/>
	<path clip-path="url(#SVGID_2_)" d="M940.8,748.4c0.4-1.4,1.3-1.5,1.6-1.5c0.4,0,0.7,0.3,0.7,0.6c0,1-1.5,1-1.9,1H940.8
		 M941.3,748.7c0.3,0,0.9,0,1.4-0.2c0.7-0.3,0.7-0.8,0.7-1c0-0.4-0.4-0.8-1-0.8c-1,0-2.4,0.9-2.4,2.5c0,0.9,0.6,1.7,1.5,1.7
		c1.3,0,2.1-1,2.1-1.1c0-0.1-0.1-0.1-0.1-0.1c0,0-0.1,0-0.1,0.1c-0.7,0.9-1.7,0.9-1.8,0.9c-0.7,0-0.8-0.8-0.8-1.1c0-0.1,0-0.4,0.1-1
		H941.3z"/>
	<path clip-path="url(#SVGID_2_)" d="M946.7,749.7c-0.1,0.2-0.1,0.2-0.2,0.4c-0.4,0.5-0.8,0.7-1,0.7c-0.5,0-0.6-0.5-0.6-0.9
		c0-0.5,0.3-1.6,0.5-2c0.3-0.6,0.7-0.9,1.1-0.9c0.6,0,0.7,0.8,0.7,0.8s0,0.1,0,0.2L946.7,749.7 M948.6,744.5c0,0,0-0.1-0.1-0.1
		c-0.1,0-1,0.1-1.2,0.1c-0.1,0-0.1,0.1-0.1,0.2c0,0.1,0.1,0.1,0.2,0.1c0.4,0,0.5,0.1,0.5,0.2l0,0.2l-0.6,2.2
		c-0.2-0.3-0.4-0.6-0.9-0.6c-1.1,0-2.2,1.4-2.2,2.7c0,0.9,0.5,1.5,1.2,1.5c0.2,0,0.7,0,1.2-0.7c0.1,0.4,0.4,0.7,0.9,0.7
		c0.3,0,0.5-0.2,0.7-0.5c0.2-0.3,0.3-0.9,0.3-0.9c0-0.1-0.1-0.1-0.1-0.1c-0.1,0-0.1,0.1-0.1,0.2c-0.2,0.6-0.3,1.2-0.7,1.2
		c-0.2,0-0.3-0.2-0.3-0.4c0-0.2,0-0.3,0.1-0.4L948.6,744.5z"/>
	<path clip-path="url(#SVGID_2_)" d="M950.6,748.5c0.1-0.3,0.1-0.3,0.2-0.5c0.1-0.2,0.1-0.3,0.1-0.5c0-0.4-0.3-0.7-0.8-0.7
		c-0.9,0-1.2,1.3-1.2,1.4c0,0.1,0.1,0.1,0.1,0.1c0.1,0,0.1,0,0.1-0.2c0.2-0.9,0.6-1.2,0.9-1.2c0.1,0,0.2,0,0.2,0.3
		c0,0.2-0.1,0.4-0.1,0.5c-0.1,0.2-0.5,1.3-0.6,1.7c-0.1,0.2-0.2,0.5-0.2,0.7c0,0.4,0.3,0.8,0.8,0.8c0.9,0,1.2-1.4,1.2-1.4
		c0-0.1-0.1-0.1-0.1-0.1c-0.1,0-0.1,0-0.1,0.2c-0.2,0.6-0.5,1.2-0.9,1.2c-0.2,0-0.2-0.1-0.2-0.3c0-0.2,0.1-0.4,0.3-0.9L950.6,748.5
		 M951.3,745c0-0.2-0.1-0.3-0.4-0.3c-0.2,0-0.5,0.2-0.5,0.5c0,0.2,0.1,0.3,0.4,0.3S951.3,745.3,951.3,745z"/>
	<path clip-path="url(#SVGID_2_)" d="M953.8,747.1h0.9c0.2,0,0.3,0,0.3-0.2c0-0.1-0.1-0.1-0.3-0.1h-0.8c0.3-1.3,0.4-1.5,0.4-1.5
		c0-0.2-0.1-0.3-0.3-0.3c0,0-0.3,0-0.4,0.3l-0.4,1.5h-0.9c-0.2,0-0.3,0-0.3,0.2c0,0.1,0.1,0.1,0.2,0.1h0.8c-0.7,2.6-0.7,2.8-0.7,3
		c0,0.5,0.3,0.9,0.9,0.9c0.9,0,1.5-1.4,1.5-1.4c0-0.1-0.1-0.1-0.1-0.1c-0.1,0-0.1,0-0.1,0.1c-0.4,1-0.9,1.2-1.2,1.2
		c-0.2,0-0.3-0.1-0.3-0.4c0-0.2,0-0.3,0.1-0.4L953.8,747.1"/>
	<path clip-path="url(#SVGID_2_)" d="M958.3,753c0,0,0-0.1-0.2-0.2c-1.2-1.2-1.5-2.9-1.5-4.3c0-1.6,0.4-3.2,1.5-4.4
		c0.1-0.1,0.1-0.1,0.1-0.2c0-0.1,0-0.1-0.1-0.1c-0.1,0-0.9,0.6-1.5,1.8c-0.5,1-0.6,2-0.6,2.8c0,0.7,0.1,1.8,0.6,2.9
		C957.4,752.5,958.2,753.1,958.3,753C958.3,753.1,958.3,753.1,958.3,753"/>
	<path clip-path="url(#SVGID_2_)" d="M963.7,747.6c0.9-0.2,2-0.9,2-1.8c0-0.8-0.8-1.4-2-1.4H961c-0.2,0-0.3,0-0.3,0.2
		c0,0.1,0.1,0.1,0.2,0.1c0,0,0.2,0,0.4,0c0.2,0,0.2,0,0.2,0.1c0,0,0,0.1,0,0.2l-1.2,5c-0.1,0.4-0.1,0.4-0.8,0.4
		c-0.2,0-0.3,0-0.3,0.2c0,0.1,0.1,0.1,0.1,0.1c0.2,0,0.9,0,1.2,0c0.2,0,0.9,0,1.2,0c0.1,0,0.2,0,0.2-0.2c0-0.1-0.1-0.1-0.2-0.1
		c-0.4,0-0.6,0-0.6-0.2c0-0.1,0-0.1,0-0.2l0.6-2.5h1.1c0.9,0,1,0.5,1,0.8c0,0.1-0.1,0.4-0.1,0.6c-0.1,0.3-0.2,0.6-0.2,0.8
		c0,1,1.1,1,1.2,1c0.8,0,1.1-0.9,1.1-1.1c0-0.1-0.1-0.1-0.1-0.1c-0.1,0-0.1,0.1-0.1,0.1c-0.2,0.7-0.6,0.8-0.8,0.8
		c-0.3,0-0.4-0.2-0.4-0.6c0-0.3,0.1-0.8,0.1-1.1c0-0.1,0-0.3,0-0.4C964.6,748,963.9,747.7,963.7,747.6 M962.4,745.1
		c0.1-0.2,0.1-0.3,0.3-0.4c0.1,0,0.4,0,0.6,0c0.7,0,1.7,0,1.7,0.9c0,0.3-0.1,0.9-0.5,1.3c-0.2,0.2-0.7,0.5-1.6,0.5h-1L962.4,745.1z"
		/>
	<path clip-path="url(#SVGID_2_)" d="M968.8,749.7c-0.2,0-0.3,0.2-0.3,0.4c0,0.2,0.1,0.2,0.3,0.2c0.1,0,0.4-0.1,0.4-0.4
		c0-0.4-0.5-0.6-0.9-0.6c-1,0-1.9,0.9-1.9,1.8c0,0.6,0.4,1.1,1.2,1.1c1.1,0,1.6-0.6,1.6-0.7c0,0-0.1-0.1-0.1-0.1
		c-0.1,0-0.1,0-0.1,0.1c-0.5,0.6-1.3,0.6-1.4,0.6c-0.5,0-0.7-0.3-0.7-0.7c0-0.2,0.1-0.9,0.4-1.4c0.2-0.3,0.6-0.5,0.9-0.5
		C968.3,749.5,968.7,749.5,968.8,749.7"/>
	<path clip-path="url(#SVGID_2_)" d="M971.4,752.5c0-0.1-0.1-0.1-0.1-0.1c-0.1,0-0.1,0-0.1,0.1c-0.1,0.3-0.3,0.5-0.5,0.5
		c-0.1,0-0.1-0.1-0.1-0.2c0-0.1,0-0.2,0.1-0.2c0-0.1,0.1-0.2,0.1-0.2c0,0,0.2-0.5,0.3-0.6c0.1-0.1,0.1-0.2,0.1-0.2
		c0-0.2-0.2-0.4-0.5-0.4c-0.5,0-0.7,0.6-0.7,0.7c0,0.1,0.1,0.1,0.1,0.1c0.1,0,0.1,0,0.1-0.1c0.1-0.3,0.3-0.5,0.5-0.5
		c0.1,0,0.1,0.1,0.1,0.2c0,0,0,0.1,0,0.2c0,0.1-0.2,0.6-0.3,0.7c0,0.1,0,0.1-0.1,0.2c0,0.1-0.1,0.1-0.1,0.2c0,0.2,0.2,0.4,0.5,0.4
		C971.1,753.2,971.4,752.6,971.4,752.5 M971.1,750.2c0-0.1-0.1-0.2-0.2-0.2c-0.1,0-0.3,0.1-0.3,0.3c0,0.1,0.1,0.2,0.2,0.2
		C971,750.5,971.1,750.3,971.1,750.2z"/>
	<path clip-path="url(#SVGID_2_)" d="M975.4,748.5c0-0.7-0.1-1.8-0.6-2.9c-0.6-1.1-1.4-1.7-1.5-1.7c-0.1,0-0.1,0-0.1,0.1
		c0,0,0,0.1,0.2,0.2c0.9,0.9,1.4,2.4,1.4,4.3c0,1.6-0.3,3.2-1.5,4.4c-0.1,0.1-0.1,0.1-0.1,0.2c0,0.1,0,0.1,0.1,0.1
		c0.1,0,0.9-0.6,1.5-1.8C975.3,750.3,975.4,749.3,975.4,748.5"/>
	
		<line clip-path="url(#SVGID_2_)" fill="none" stroke="#000000" stroke-width="0.5572" stroke-miterlimit="10" x1="900.6" y1="754.9" x2="976.3" y2="754.9"/>
	<path clip-path="url(#SVGID_2_)" d="M939.6,760.5c0.9-0.2,2-0.9,2-1.8c0-0.8-0.8-1.4-2-1.4H937c-0.2,0-0.3,0-0.3,0.2
		c0,0.1,0.1,0.1,0.2,0.1c0,0,0.2,0,0.4,0c0.2,0,0.2,0,0.2,0.1c0,0,0,0.1,0,0.2l-1.2,5c-0.1,0.4-0.1,0.4-0.8,0.4
		c-0.2,0-0.3,0-0.3,0.2c0,0.1,0.1,0.1,0.1,0.1c0.2,0,0.9,0,1.2,0c0.2,0,0.9,0,1.2,0c0.1,0,0.2,0,0.2-0.2c0-0.1-0.1-0.1-0.2-0.1
		c-0.4,0-0.6,0-0.6-0.2c0-0.1,0-0.1,0-0.2l0.6-2.5h1.1c0.9,0,1,0.5,1,0.8c0,0.1-0.1,0.4-0.1,0.6c-0.1,0.3-0.2,0.6-0.2,0.8
		c0,1,1.1,1,1.2,1c0.8,0,1.1-0.9,1.1-1.1c0-0.1-0.1-0.1-0.1-0.1c-0.1,0-0.1,0.1-0.1,0.1c-0.2,0.7-0.6,0.9-0.8,0.9
		c-0.3,0-0.4-0.2-0.4-0.6c0-0.3,0.1-0.8,0.1-1.1c0-0.1,0-0.3,0-0.4C940.5,760.8,939.9,760.6,939.6,760.5 M938.3,757.9
		c0.1-0.2,0.1-0.3,0.3-0.3c0.1,0,0.4,0,0.6,0c0.7,0,1.7,0,1.7,0.9c0,0.3-0.1,1-0.5,1.3c-0.2,0.2-0.7,0.5-1.6,0.5h-1L938.3,757.9z"/>
	<path clip-path="url(#SVGID_2_)" d="M982.6,754.9c0-3.5-0.4-7-1.9-10.2c-0.7-1.4-1.5-2.7-2.5-3.6c-0.1-0.1-0.1-0.1-0.2-0.1
		c-0.1,0-0.2,0-0.2,0.1c0,0,0,0.1,0.1,0.1c0.9,1.1,1.6,2.3,2.2,3.6c1.2,2.8,1.7,6.2,1.7,10.2c0,4-0.4,7.4-1.8,10.5
		c-0.5,1.2-1.2,2.3-2.1,3.3c0,0,0,0.1,0,0.1c0,0.1,0.1,0.1,0.2,0.1c0.1,0,0.2,0,0.2,0s0.6-0.6,1.3-1.6c1.6-2.3,2.4-5,2.8-7.8
		C982.5,757.9,982.6,756.4,982.6,754.9"/>
	<path clip-path="url(#SVGID_2_)" d="M993.4,768.7c0,0,0,0-0.1-0.1c-0.9-1.1-1.6-2.3-2.2-3.6c-1.2-2.8-1.7-6.2-1.7-10.2
		c0-4,0.5-7.4,1.8-10.5c0.5-1.2,1.2-2.3,2.1-3.3c0,0,0,0,0-0.1c0-0.1-0.1-0.1-0.2-0.1c-0.1,0-0.2,0-0.2,0c0,0-0.6,0.6-1.3,1.6
		c-1.6,2.3-2.4,5-2.9,7.8c-0.2,1.5-0.3,3-0.3,4.5c0,3.5,0.4,7,1.9,10.2c0.7,1.4,1.5,2.7,2.5,3.6c0.1,0.1,0.1,0.1,0.2,0.1
		C993.3,768.8,993.4,768.8,993.4,768.7"/>
	<path clip-path="url(#SVGID_2_)" d="M998.2,753.1v-0.4c-1,0-1-0.4-1-0.7v-7.8h4v7.8c0,0.3,0,0.7-1,0.7v0.4h2.8v-0.4
		c-1,0-1-0.4-1-0.7V745c0-0.3,0-0.7,1-0.7v-0.4h-7.7v0.4c1,0,1,0.4,1,0.7v7.1c0,0.3,0,0.7-1,0.7v0.4H998.2"/>
	<path clip-path="url(#SVGID_2_)" d="M1007.5,743.9c0.8-0.2,1.5-0.7,1.5-1.2c0-0.6-0.7-1-1.6-1h-2c-0.1,0-0.2,0-0.2,0.1
		c0,0.1,0.1,0.1,0.2,0.1c0,0,0.1,0,0.2,0c0.1,0,0.1,0,0.1,0.1c0,0,0,0,0,0.1l-0.9,3.5c-0.1,0.2-0.1,0.3-0.6,0.3
		c-0.1,0-0.2,0-0.2,0.1c0,0.1,0.1,0.1,0.1,0.1c0.1,0,0.3,0,0.4,0c0.1,0,0.3,0,0.4,0c0.1,0,0.3,0,0.4,0c0.1,0,0.3,0,0.4,0
		c0,0,0.1,0,0.1-0.1c0-0.1-0.1-0.1-0.2-0.1c-0.1,0-0.1,0-0.2,0c-0.1,0-0.1,0-0.1-0.1c0,0,0,0,0-0.1l0.4-1.7h0.9
		c0.6,0,0.8,0.3,0.8,0.6c0,0.1-0.1,0.3-0.1,0.5c-0.1,0.3-0.1,0.4-0.1,0.5c0,0.5,0.5,0.7,1,0.7c0.6,0,0.9-0.6,0.9-0.8
		c0,0,0-0.1-0.1-0.1c-0.1,0-0.1,0.1-0.1,0.1c-0.1,0.3-0.3,0.6-0.6,0.6c-0.2,0-0.3-0.1-0.3-0.4c0-0.2,0-0.5,0.1-0.7
		c0-0.2,0-0.2,0-0.3c0-0.1,0-0.3-0.2-0.5C1007.8,744,1007.6,744,1007.5,743.9 M1006.3,742.1c0.1-0.2,0.1-0.2,0.2-0.2h0.4
		c0.6,0,1.4,0,1.4,0.7c0,0.3-0.1,0.7-0.4,0.9c-0.3,0.2-0.7,0.3-1.1,0.3h-0.9L1006.3,742.1z"/>
	<path clip-path="url(#SVGID_2_)" d="M1004.4,752.8c0,0.1-0.1,0.2-0.1,0.3c0,0.3,0.3,0.6,0.6,0.6c0.7,0,0.9-0.9,0.9-1
		c0-0.1-0.1-0.1-0.1-0.1c-0.1,0-0.1,0-0.1,0.1c-0.1,0.5-0.4,0.8-0.7,0.8c-0.1,0-0.2-0.1-0.2-0.2c0-0.2,0-0.3,0.1-0.4
		c0.1-0.2,0.1-0.4,0.2-0.5c0.1-0.2,0.3-0.7,0.3-0.8c0-0.1,0-0.1,0-0.2c0-0.3-0.3-0.6-0.6-0.6c-0.7,0-0.9,0.9-0.9,1
		c0,0.1,0.1,0.1,0.1,0.1c0.1,0,0.1,0,0.1-0.1c0.2-0.6,0.5-0.8,0.7-0.8c0.1,0,0.2,0.1,0.2,0.2c0,0.2,0,0.2-0.2,0.7L1004.4,752.8
		 M1005.7,749.5c0-0.1-0.1-0.2-0.2-0.2c-0.2,0-0.4,0.2-0.4,0.4c0,0.1,0.1,0.2,0.3,0.2S1005.7,749.7,1005.7,749.5z"/>
	<path clip-path="url(#SVGID_2_)" d="M1011.3,752.9c0.1,0,0.2,0,0.2-0.2c0-0.2-0.2-0.2-0.2-0.2h-4.3c-0.1,0-0.2,0-0.2,0.2
		c0,0.2,0.2,0.2,0.2,0.2H1011.3 M1011.3,751.4c0.1,0,0.2,0,0.2-0.2c0-0.2-0.2-0.2-0.2-0.2h-4.3c-0.1,0-0.2,0-0.2,0.2
		c0,0.2,0.2,0.2,0.2,0.2H1011.3z"/>
	<path clip-path="url(#SVGID_2_)" d="M1014.2,749.5c0-0.2,0-0.2-0.2-0.2c-0.4,0.4-1,0.4-1.3,0.4v0.2c0.2,0,0.6,0,0.9-0.2v3.3
		c0,0.2,0,0.3-0.7,0.3h-0.2v0.2c0.1,0,0.9,0,1.2,0c0.2,0,1,0,1.2,0v-0.2h-0.2c-0.7,0-0.7-0.1-0.7-0.3V749.5"/>
	<path clip-path="url(#SVGID_2_)" d="M1020.9,749.6c-0.1,0.2-0.3,0.5-0.5,0.6c-0.2,0.2-0.5,0.3-0.7,0.3c-0.5,0-0.6-0.5-0.6-0.9
		c0-0.4,0.3-1.5,0.5-2c0.2-0.5,0.7-0.8,1-0.8c0.6,0,0.7,0.7,0.7,0.8s0,0.1,0,0.1L1020.9,749.6 M1022.1,747.3c0-0.1,0-0.1,0-0.2
		c0-0.2-0.1-0.2-0.3-0.2c-0.1,0-0.3,0.1-0.4,0.4c-0.2-0.4-0.5-0.6-0.9-0.6c-1,0-2.2,1.3-2.2,2.6c0,0.9,0.6,1.5,1.2,1.5
		c0.6,0,1-0.4,1.1-0.5v0c-0.2,0.8-0.3,1.2-0.3,1.2c0,0.1-0.4,1-1.3,1c-0.2,0-0.5,0-0.7-0.1c0.3-0.1,0.4-0.3,0.4-0.5
		c0-0.2-0.1-0.3-0.4-0.3c-0.2,0-0.5,0.2-0.5,0.6c0,0.4,0.3,0.6,1.2,0.6c1.2,0,1.8-0.7,2-1.3L1022.1,747.3z"/>
	<path clip-path="url(#SVGID_2_)" d="M1024.4,750.7c-0.4,0-0.8-0.3-0.8-1c0-0.5,0.2-1.5,0.5-1.9c0.5-0.7,1-0.9,1.3-0.9
		c0.5,0,0.8,0.4,0.8,1c0,0.4-0.2,1.3-0.5,1.9C1025.3,750.4,1024.8,750.7,1024.4,750.7 M1026.9,748.3c0-1-0.7-1.6-1.5-1.6
		c-1.2,0-2.5,1.3-2.5,2.6c0,0.9,0.6,1.6,1.5,1.6C1025.6,750.9,1026.9,749.6,1026.9,748.3z"/>
	<path clip-path="url(#SVGID_2_)" d="M1028.9,750.7c-0.4,0-0.8-0.3-0.8-1c0-0.5,0.2-1.5,0.5-1.9c0.5-0.7,1-0.9,1.3-0.9
		c0.5,0,0.8,0.4,0.8,1c0,0.4-0.2,1.3-0.6,1.9C1029.8,750.4,1029.3,750.7,1028.9,750.7 M1031.3,748.3c0-1-0.7-1.6-1.5-1.6
		c-1.2,0-2.5,1.3-2.5,2.6c0,0.9,0.6,1.6,1.5,1.6C1030.1,750.9,1031.3,749.6,1031.3,748.3z"/>
	<path clip-path="url(#SVGID_2_)" d="M1034.4,749.7c-0.1,0.2-0.1,0.2-0.2,0.4c-0.4,0.5-0.8,0.7-1,0.7c-0.5,0-0.6-0.5-0.6-0.9
		c0-0.5,0.3-1.6,0.5-2c0.3-0.6,0.7-0.9,1.1-0.9c0.6,0,0.7,0.8,0.7,0.8s0,0.1,0,0.2L1034.4,749.7 M1036.3,744.5c0,0,0-0.1-0.1-0.1
		c-0.1,0-1,0.1-1.2,0.1c-0.1,0-0.1,0.1-0.1,0.2c0,0.1,0.1,0.1,0.2,0.1c0.4,0,0.5,0.1,0.5,0.2l0,0.2l-0.6,2.2
		c-0.2-0.3-0.4-0.6-0.9-0.6c-1.1,0-2.2,1.4-2.2,2.7c0,0.9,0.5,1.5,1.2,1.5c0.2,0,0.7,0,1.2-0.7c0.1,0.4,0.4,0.7,0.9,0.7
		c0.3,0,0.5-0.2,0.7-0.5c0.2-0.3,0.3-0.9,0.3-0.9c0-0.1-0.1-0.1-0.1-0.1c-0.1,0-0.1,0.1-0.1,0.2c-0.2,0.6-0.3,1.2-0.7,1.2
		c-0.2,0-0.3-0.2-0.3-0.4c0-0.2,0-0.3,0.1-0.4L1036.3,744.5z"/>
	<path clip-path="url(#SVGID_2_)" d="M1039.5,753c0,0,0-0.1-0.2-0.2c-1.2-1.2-1.5-2.9-1.5-4.3c0-1.6,0.4-3.2,1.5-4.4
		c0.1-0.1,0.1-0.1,0.1-0.2c0-0.1,0-0.1-0.1-0.1c-0.1,0-0.9,0.6-1.5,1.8c-0.5,1-0.6,2-0.6,2.8c0,0.7,0.1,1.8,0.6,2.9
		C1038.5,752.5,1039.3,753.1,1039.5,753C1039.4,753.1,1039.5,753.1,1039.5,753"/>
	<path clip-path="url(#SVGID_2_)" d="M1044.8,747.6c0.9-0.2,2-0.9,2-1.8c0-0.8-0.8-1.4-2-1.4h-2.6c-0.2,0-0.3,0-0.3,0.2
		c0,0.1,0.1,0.1,0.2,0.1c0,0,0.2,0,0.4,0c0.2,0,0.2,0,0.2,0.1c0,0,0,0.1,0,0.2l-1.2,5c-0.1,0.4-0.1,0.4-0.9,0.4
		c-0.2,0-0.2,0-0.2,0.2c0,0.1,0.1,0.1,0.1,0.1c0.2,0,0.9,0,1.2,0c0.2,0,0.9,0,1.2,0c0.1,0,0.2,0,0.2-0.2c0-0.1-0.1-0.1-0.2-0.1
		c-0.4,0-0.6,0-0.6-0.2c0-0.1,0-0.1,0-0.2l0.6-2.5h1.1c0.9,0,1,0.5,1,0.8c0,0.1-0.1,0.4-0.1,0.6c-0.1,0.3-0.2,0.6-0.2,0.8
		c0,1,1.1,1,1.2,1c0.8,0,1.1-0.9,1.1-1.1c0-0.1-0.1-0.1-0.1-0.1c-0.1,0-0.1,0.1-0.1,0.1c-0.2,0.7-0.6,0.8-0.8,0.8
		c-0.3,0-0.4-0.2-0.4-0.6c0-0.3,0.1-0.8,0.1-1.1c0-0.1,0-0.3,0-0.4C1045.7,748,1045.1,747.7,1044.8,747.6 M1043.5,745.1
		c0.1-0.2,0.1-0.3,0.2-0.4c0.1,0,0.4,0,0.6,0c0.7,0,1.7,0,1.7,0.9c0,0.3-0.1,0.9-0.5,1.3c-0.2,0.2-0.7,0.5-1.6,0.5h-1L1043.5,745.1z
		"/>
	<path clip-path="url(#SVGID_2_)" d="M1049.9,749.7c-0.2,0-0.3,0.2-0.3,0.4c0,0.2,0.1,0.2,0.3,0.2c0.1,0,0.4-0.1,0.4-0.4
		c0-0.4-0.5-0.6-0.9-0.6c-1,0-1.9,0.9-1.9,1.8c0,0.6,0.4,1.1,1.2,1.1c1.1,0,1.6-0.6,1.6-0.7c0,0-0.1-0.1-0.1-0.1
		c-0.1,0-0.1,0-0.1,0.1c-0.5,0.6-1.3,0.6-1.4,0.6c-0.5,0-0.7-0.3-0.7-0.7c0-0.2,0.1-0.9,0.4-1.4c0.2-0.3,0.6-0.5,0.9-0.5
		C1049.5,749.5,1049.8,749.5,1049.9,749.7"/>
	<path clip-path="url(#SVGID_2_)" d="M1052.5,752.5c0-0.1-0.1-0.1-0.1-0.1c-0.1,0-0.1,0-0.1,0.1c-0.1,0.3-0.3,0.5-0.5,0.5
		c-0.1,0-0.1-0.1-0.1-0.2c0-0.1,0-0.2,0.1-0.2c0-0.1,0.1-0.2,0.1-0.2c0,0,0.2-0.5,0.3-0.6c0.1-0.1,0.1-0.2,0.1-0.2
		c0-0.2-0.2-0.4-0.5-0.4c-0.5,0-0.7,0.6-0.7,0.7c0,0.1,0.1,0.1,0.1,0.1c0.1,0,0.1,0,0.1-0.1c0.1-0.3,0.3-0.5,0.5-0.5
		c0.1,0,0.1,0.1,0.1,0.2c0,0,0,0.1,0,0.2c0,0.1-0.2,0.6-0.3,0.7c0,0.1,0,0.1-0.1,0.2c0,0.1-0.1,0.1-0.1,0.2c0,0.2,0.2,0.4,0.5,0.4
		C1052.2,753.2,1052.5,752.6,1052.5,752.5 M1052.3,750.2c0-0.1-0.1-0.2-0.2-0.2c-0.1,0-0.3,0.1-0.3,0.3c0,0.1,0.1,0.2,0.2,0.2
		C1052.1,750.5,1052.3,750.3,1052.3,750.2z"/>
	<path clip-path="url(#SVGID_2_)" d="M1056.5,748.5c0-0.7-0.1-1.8-0.6-2.9c-0.6-1.1-1.4-1.7-1.5-1.7c-0.1,0-0.1,0-0.1,0.1
		c0,0,0,0.1,0.2,0.2c0.9,0.9,1.4,2.4,1.4,4.3c0,1.6-0.3,3.2-1.5,4.4c-0.1,0.1-0.1,0.1-0.1,0.2c0,0.1,0,0.1,0.1,0.1
		c0.1,0,0.9-0.6,1.5-1.8C1056.4,750.3,1056.5,749.3,1056.5,748.5"/>
	
		<line clip-path="url(#SVGID_2_)" fill="none" stroke="#000000" stroke-width="0.5572" stroke-miterlimit="10" x1="994.8" y1="754.9" x2="1057.4" y2="754.9"/>
	<path clip-path="url(#SVGID_2_)" d="M1027.4,760.5c0.9-0.2,2-0.9,2-1.8c0-0.8-0.8-1.4-2.1-1.4h-2.6c-0.2,0-0.3,0-0.3,0.2
		c0,0.1,0.1,0.1,0.3,0.1c0,0,0.2,0,0.4,0c0.2,0,0.2,0,0.2,0.1c0,0,0,0.1,0,0.2l-1.2,5c-0.1,0.4-0.1,0.4-0.9,0.4
		c-0.2,0-0.2,0-0.2,0.2c0,0.1,0.1,0.1,0.1,0.1c0.2,0,0.9,0,1.2,0c0.3,0,0.9,0,1.2,0c0.1,0,0.2,0,0.2-0.2c0-0.1-0.1-0.1-0.3-0.1
		c-0.3,0-0.6,0-0.6-0.2c0-0.1,0-0.1,0-0.2l0.6-2.5h1.1c0.8,0,1,0.5,1,0.8c0,0.1-0.1,0.4-0.1,0.6c-0.1,0.3-0.1,0.6-0.1,0.8
		c0,1,1.1,1,1.2,1c0.8,0,1.1-0.9,1.1-1.1c0-0.1-0.1-0.1-0.1-0.1c-0.1,0-0.1,0.1-0.1,0.1c-0.2,0.7-0.6,0.9-0.8,0.9
		c-0.3,0-0.4-0.2-0.4-0.6c0-0.3,0.1-0.8,0.1-1.1c0-0.1,0-0.3,0-0.4C1028.3,760.8,1027.6,760.6,1027.4,760.5 M1026.1,757.9
		c0.1-0.2,0.1-0.3,0.2-0.3c0.1,0,0.4,0,0.6,0c0.7,0,1.7,0,1.7,0.9c0,0.3-0.1,1-0.5,1.3c-0.2,0.2-0.7,0.5-1.6,0.5h-1L1026.1,757.9z"
		/>
	<path clip-path="url(#SVGID_2_)" d="M1063.7,754.9c0-3.5-0.4-7-1.9-10.2c-0.7-1.4-1.5-2.7-2.5-3.6c-0.1-0.1-0.1-0.1-0.2-0.1
		c-0.1,0-0.2,0-0.2,0.1c0,0,0,0.1,0.1,0.1c0.9,1.1,1.6,2.3,2.2,3.6c1.2,2.8,1.7,6.2,1.7,10.2c0,4-0.4,7.4-1.8,10.5
		c-0.5,1.2-1.2,2.3-2.1,3.3c0,0,0,0.1,0,0.1c0,0.1,0.1,0.1,0.2,0.1c0.1,0,0.2,0,0.2,0c0,0,0.6-0.6,1.3-1.6c1.6-2.3,2.4-5,2.8-7.8
		C1063.7,757.9,1063.7,756.4,1063.7,754.9"/>
</g>
<g>
	<defs>
		<rect id="SVGID_3_" x="478.4" y="650.6" width="167" height="50.8"/>
	</defs>
	<clipPath id="SVGID_4_">
		<use xlink:href="#SVGID_3_"  overflow="visible"/>
	</clipPath>
	<path clip-path="url(#SVGID_4_)" d="M481.3,683.2c-0.8,0-0.9-1.1-0.9-1.3c0-0.7,0.4-2.2,0.6-2.8c0.4-1,1.1-1.6,1.7-1.6
		c0.9,0,1.1,1.1,1.1,1.2c0,0.1-0.8,3.1-0.8,3.2C482.8,682.3,482.1,683.2,481.3,683.2 M485.1,677.4c0-0.1,0-0.1-0.1-0.1
		c-0.2,0-0.7,0.6-1,1c-0.3-0.7-0.8-1-1.3-1c-1.7,0-3.4,2.1-3.4,4.1c0,1.4,0.8,2.2,1.8,2.2c0.6,0,1.1-0.3,1.6-0.8
		c-0.1,0.5-0.6,2.4-0.6,2.5c-0.1,0.4-0.2,0.5-1,0.5c-0.2,0-0.3,0-0.3,0.3c0,0,0,0.2,0.2,0.2c0.5,0,0.9-0.1,1.4-0.1
		c0.5,0,1,0.1,1.4,0.1c0.1,0,0.3,0,0.3-0.3c0-0.1-0.2-0.1-0.4-0.1c-0.7,0-0.7-0.1-0.7-0.2c0-0.1,0-0.2,0.1-0.3L485.1,677.4z"/>
	<path clip-path="url(#SVGID_4_)" d="M488.3,682.9l2.1-3.2l0.5,3.2H488.3 M487.1,684.3c-0.3,0.5-0.7,0.8-1.3,0.8
		c-0.1,0-0.2,0-0.2,0.2c0,0.1,0.1,0.1,0.1,0.1c0.3,0,0.6,0,0.9,0c0.3,0,0.7,0,1,0c0.1,0,0.2,0,0.2-0.2c0-0.1-0.1-0.1-0.2-0.1
		c-0.1,0-0.4,0-0.4-0.3c0-0.1,0.1-0.3,0.2-0.4l0.8-1.2h2.8l0.2,1.6c0,0.1-0.1,0.2-0.7,0.2c-0.1,0-0.3,0-0.3,0.2c0,0.1,0,0.1,0.2,0.1
		c0.3,0,1,0,1.3,0c0.2,0,0.4,0,0.6,0c0.2,0,0.4,0,0.6,0c0.1,0,0.2-0.1,0.2-0.2c0-0.2-0.1-0.2-0.3-0.2c-0.6,0-0.6-0.1-0.6-0.3l-0.9-6
		c0-0.2-0.1-0.3-0.2-0.3c-0.2,0-0.2,0.1-0.3,0.2L487.1,684.3z"/>
	<path clip-path="url(#SVGID_4_)" d="M507.6,681.5c0.2,0,0.5,0,0.5-0.3c0-0.3-0.3-0.3-0.5-0.3h-8.3c-0.2,0-0.5,0-0.5,0.3
		c0,0.3,0.3,0.3,0.5,0.3H507.6 M507.6,678.9c0.2,0,0.5,0,0.5-0.3c0-0.3-0.3-0.3-0.5-0.3h-8.3c-0.2,0-0.5,0-0.5,0.3
		c0,0.3,0.3,0.3,0.5,0.3H507.6z"/>
	<path clip-path="url(#SVGID_4_)" d="M523,651.2c-0.5,0-0.5,0-0.5,0.5v7.6c0,0.2,0,0.5,0.3,0.5c0.3,0,0.3-0.3,0.3-0.5v-7.6h4.2
		c0.2,0,0.5,0,0.5-0.3c0-0.3-0.2-0.3-0.5-0.3H523"/>
	<path clip-path="url(#SVGID_4_)" d="M522.5,667.7c0,0.2,0,0.5,0.3,0.5c0.3,0,0.3-0.2,0.3-0.5v-7.9c0-0.2,0-0.5-0.3-0.5
		c-0.3,0-0.3,0.3-0.3,0.5V667.7"/>
	<path clip-path="url(#SVGID_4_)" d="M522.5,676.1c0,0.2,0,0.5,0.3,0.5c0.3,0,0.3-0.2,0.3-0.5v-7.9c0-0.2,0-0.5-0.3-0.5
		c-0.3,0-0.3,0.2-0.3,0.5V676.1"/>
	<path clip-path="url(#SVGID_4_)" d="M522.5,701.3c0.5,0,0.6-0.1,0.6-0.5v-24.3c0-0.2,0-0.5-0.3-0.5c-0.3,0-0.3,0.3-0.3,0.5v21.3h0
		l-6.3-19l-1.9,3.8l0.2,0.2l1.1-2.3L522.5,701.3"/>
	
		<line clip-path="url(#SVGID_4_)" fill="none" stroke="#000000" stroke-width="0.5572" stroke-miterlimit="10" x1="527.5" y1="651.5" x2="644.9" y2="651.5"/>
	<path clip-path="url(#SVGID_4_)" d="M538,700.5c0,0,0-0.1-0.1-0.2c-1.3-1.6-2.4-3.4-3.2-5.3c-1.8-4.3-2.6-9.2-2.6-15.2
		c0-5.9,0.7-11.1,2.7-15.7c0.8-1.8,1.9-3.4,3.1-4.9c0-0.1,0.1-0.1,0.1-0.1c0-0.1-0.1-0.1-0.3-0.1s-0.2,0-0.3,0c0,0-0.9,0.9-1.9,2.4
		c-2.4,3.4-3.6,7.5-4.3,11.7c-0.3,2.2-0.4,4.5-0.4,6.8c0,5.2,0.6,10.5,2.9,15.3c1,2.1,2.3,4,3.7,5.5c0.1,0.1,0.1,0.1,0.4,0.1
		C537.9,700.6,538,700.6,538,700.5"/>
	<path clip-path="url(#SVGID_4_)" d="M545.8,665.4c0,0.1-0.1,0.4-0.1,0.4c0,0.2,0.2,0.3,0.3,0.3c0.2,0,0.3-0.1,0.4-0.2
		c0.1-0.1,0.1-0.4,0.2-0.6c0.1-0.2,0.2-0.6,0.2-0.9c0.1-0.2,0.1-0.4,0.2-0.7c0.1-0.4,0.1-0.5,0.4-0.9c0.3-0.4,0.7-0.9,1.5-0.9
		c0.6,0,0.6,0.5,0.6,0.7c0,0.6-0.4,1.7-0.6,2.1c-0.1,0.3-0.2,0.4-0.2,0.5c0,0.5,0.4,0.9,0.9,0.9c1,0,1.4-1.4,1.4-1.5
		c0-0.1-0.1-0.1-0.2-0.1c-0.1,0-0.1,0.1-0.2,0.2c-0.2,0.8-0.6,1.2-1,1.2c-0.2,0-0.2-0.1-0.2-0.3c0-0.2,0.1-0.4,0.2-0.8
		c0.1-0.3,0.5-1.4,0.5-1.9c0-1-0.7-1.1-1.3-1.1c-0.8,0-1.4,0.5-1.7,0.9c-0.1-0.7-0.6-0.9-1-0.9c-0.4,0-0.7,0.3-0.8,0.5
		c-0.2,0.3-0.4,0.9-0.4,1c0,0.1,0.2,0.1,0.2,0.1c0.1,0,0.1,0,0.2-0.3c0.1-0.6,0.3-1.1,0.7-1.1c0.2,0,0.3,0.2,0.3,0.5
		c0,0.2-0.1,0.6-0.2,0.8c-0.1,0.3-0.2,0.7-0.2,0.9L545.8,665.4"/>
	<path clip-path="url(#SVGID_4_)" d="M556.1,689.6v-0.7c-1.8,0-2.3-0.6-2.3-1.5v-14.9c0-0.9,0.4-1.5,2.3-1.5v-0.7h-16.2v0.7
		c1.8,0,2.3,0.6,2.3,1.5v14.9c0,0.9-0.4,1.5-2.3,1.5v0.7h6.7v-0.7c-1.8,0-2.3-0.6-2.3-1.5v-16.5h7.4v16.5c0,0.9-0.5,1.5-2.3,1.5v0.7
		H556.1"/>
	<path clip-path="url(#SVGID_4_)" d="M542.8,695.9c-0.3,0.1-0.5,0.3-0.5,0.6c0,0.2,0.2,0.3,0.4,0.3c0.2,0,0.5-0.2,0.5-0.6
		c0-0.7-0.7-0.9-1.3-0.9c-1.5,0-2.8,1.3-2.8,2.7c0,0.9,0.6,1.7,1.8,1.7c1.7,0,2.4-1,2.4-1.1c0-0.1-0.1-0.2-0.2-0.2s-0.1,0-0.2,0.1
		c-0.8,0.9-1.9,0.9-2.1,0.9c-0.7,0-1-0.5-1-1.1c0-0.3,0.1-1.3,0.7-2c0.4-0.5,0.9-0.7,1.4-0.7C542.1,695.7,542.6,695.7,542.8,695.9"
		/>
	<path clip-path="url(#SVGID_4_)" d="M551.1,698.6c0.1,0,0.4,0,0.4-0.2c0-0.2-0.2-0.2-0.4-0.2h-6.4c-0.2,0-0.4,0-0.4,0.2
		c0,0.2,0.2,0.2,0.3,0.2H551.1 M551.1,696.4c0.1,0,0.4,0,0.4-0.2s-0.2-0.2-0.4-0.2h-6.5c-0.1,0-0.3,0-0.3,0.2s0.2,0.2,0.4,0.2H551.1
		z"/>
	<path clip-path="url(#SVGID_4_)" d="M555.3,693.5c0-0.3,0-0.3-0.3-0.3c-0.6,0.6-1.5,0.6-1.9,0.6v0.3c0.2,0,0.9,0,1.4-0.3v5
		c0,0.3,0,0.5-1,0.5h-0.4v0.3c0.2,0,1.4-0.1,1.7-0.1c0.3,0,1.5,0,1.8,0.1v-0.3h-0.4c-1,0-1-0.1-1-0.5V693.5"/>
	<path clip-path="url(#SVGID_4_)" d="M562.4,683.2c-0.8,0-0.9-1.1-0.9-1.3c0-0.7,0.4-2.2,0.6-2.8c0.4-1,1.1-1.6,1.7-1.6
		c0.9,0,1.1,1.1,1.1,1.2c0,0.1-0.8,3.1-0.8,3.2C563.9,682.3,563.1,683.2,562.4,683.2 M566.2,677.4c0-0.1-0.1-0.1-0.1-0.1
		c-0.2,0-0.7,0.6-1,1c-0.3-0.7-0.9-1-1.3-1c-1.7,0-3.4,2.1-3.4,4.1c0,1.4,0.8,2.2,1.8,2.2c0.6,0,1.1-0.3,1.6-0.8
		c-0.1,0.5-0.6,2.4-0.6,2.5c-0.1,0.4-0.2,0.5-1,0.5c-0.2,0-0.3,0-0.3,0.3c0,0,0,0.2,0.2,0.2c0.5,0,0.9-0.1,1.4-0.1
		c0.5,0,1,0.1,1.4,0.1c0.1,0,0.2,0,0.2-0.3c0-0.1-0.1-0.1-0.3-0.1c-0.7,0-0.7-0.1-0.7-0.2c0-0.1,0-0.2,0.1-0.3L566.2,677.4z"/>
	<path clip-path="url(#SVGID_4_)" d="M570.4,681.8c-0.3,0.1-0.5,0.3-0.5,0.5c0,0.3,0.2,0.4,0.4,0.4c0.2,0,0.6-0.2,0.6-0.6
		c0-0.7-0.8-0.9-1.3-0.9c-1.5,0-2.8,1.4-2.8,2.7c0,0.9,0.6,1.7,1.8,1.7c1.7,0,2.4-1,2.4-1.1c0-0.1-0.1-0.2-0.2-0.2
		c-0.1,0-0.1,0-0.2,0.1c-0.7,0.9-1.9,0.9-2.1,0.9c-0.7,0-1-0.5-1-1.1c0-0.3,0.1-1.4,0.6-2c0.4-0.5,0.9-0.7,1.4-0.7
		C569.7,681.5,570.2,681.5,570.4,681.8"/>
	<path clip-path="url(#SVGID_4_)" d="M579.6,679.8c0-5.2-0.7-10.5-2.9-15.3c-1-2.1-2.3-4-3.7-5.5c-0.1-0.1-0.1-0.1-0.4-0.1
		c-0.2,0-0.3,0-0.3,0.1c0,0.1,0.1,0.1,0.1,0.2c1.3,1.6,2.4,3.4,3.2,5.3c1.8,4.2,2.6,9.2,2.6,15.2c0,5.9-0.7,11.1-2.7,15.7
		c-0.8,1.8-1.9,3.4-3.1,4.9c0,0-0.1,0.1-0.1,0.1c0,0.1,0.1,0.1,0.3,0.1c0.2,0,0.2,0,0.3,0c0,0,0.9-0.9,2-2.4
		c2.4-3.4,3.6-7.5,4.3-11.7C579.4,684.3,579.6,682.1,579.6,679.8"/>
	<path clip-path="url(#SVGID_4_)" d="M588,654.2c0-0.2,0-0.2-0.3-0.2c-0.5,0.5-1.3,0.5-1.4,0.5h-0.1v0.3h0.1c0.2,0,0.6,0,1-0.2v3.5
		c0,0.2,0,0.3-0.7,0.3h-0.3v0.3c0.4,0,1,0,1.4,0c0.4,0,1,0,1.4,0v-0.3h-0.3c-0.7,0-0.7-0.1-0.7-0.3V654.2"/>
	
		<line clip-path="url(#SVGID_4_)" fill="none" stroke="#000000" stroke-width="0.4746" stroke-miterlimit="10" x1="584.6" y1="660" x2="590.7" y2="660"/>
	<path clip-path="url(#SVGID_4_)" d="M585.9,665.1c-0.1,0.2-0.1,0.5-0.1,0.5c0,0.2,0.1,0.2,0.2,0.2c0.1,0,0.3-0.1,0.3-0.2
		c0-0.1,0.1-0.4,0.1-0.6c0.2-0.9,0.2-1,0.3-1c0.1-0.2,0.6-1.2,1.4-1.2c0.3,0,0.5,0.2,0.5,0.5c0,0.4-0.3,1.1-0.5,1.5
		c-0.1,0.1-0.1,0.2-0.1,0.3c0,0.4,0.3,0.6,0.8,0.6c0.7,0,1.1-0.9,1.1-1.1c0-0.1-0.1-0.1-0.1-0.1c-0.1,0-0.1,0-0.2,0.2
		c-0.1,0.4-0.5,0.8-0.8,0.8c-0.2,0-0.2-0.1-0.2-0.3c0-0.1,0-0.2,0.1-0.4c0.1-0.3,0.5-1.1,0.5-1.5c0-0.5-0.4-0.8-1-0.8
		c-0.6,0-1.1,0.4-1.3,0.7c0-0.6-0.6-0.7-0.9-0.7c-0.7,0-0.9,1.1-0.9,1.1c0,0.1,0.1,0.1,0.1,0.1c0.1,0,0.1,0,0.2-0.1
		c0.1-0.4,0.3-0.8,0.6-0.8c0.2,0,0.3,0.2,0.3,0.4c0,0.1-0.1,0.3-0.1,0.5c-0.1,0.2-0.1,0.5-0.2,0.6L585.9,665.1"/>
	<path clip-path="url(#SVGID_4_)" d="M600.2,681.6c-0.1,0.3-0.4,0.7-0.7,1c-0.3,0.3-0.7,0.5-1.1,0.5c-0.7,0-0.9-0.7-0.9-1.3
		c0-0.7,0.4-2.3,0.8-3c0.4-0.7,1-1.3,1.6-1.3c0.9,0,1.1,1.1,1.1,1.2c0,0.1,0,0.2-0.1,0.2L600.2,681.6 M602,678.2
		c0-0.1,0.1-0.2,0.1-0.3c0-0.2-0.2-0.4-0.4-0.4c-0.1,0-0.5,0.1-0.6,0.6c-0.2-0.5-0.7-0.9-1.3-0.9c-1.6,0-3.3,1.9-3.3,3.9
		c0,1.4,0.9,2.2,1.9,2.2c0.8,0,1.5-0.6,1.6-0.8l0,0c-0.3,1.2-0.5,1.8-0.5,1.8c-0.1,0.1-0.5,1.5-2,1.5c-0.3,0-0.7,0-1.1-0.1
		c0.4-0.1,0.6-0.5,0.6-0.7s-0.2-0.5-0.5-0.5c-0.3,0-0.7,0.3-0.7,0.8c0,0.6,0.5,0.9,1.8,0.9c1.8,0,2.7-1.1,3-1.9L602,678.2z"/>
	<path clip-path="url(#SVGID_4_)" d="M605.3,683.2c-0.6,0-1.2-0.4-1.2-1.5c0-0.7,0.3-2.2,0.8-2.9c0.7-1.1,1.5-1.3,1.9-1.3
		c0.8,0,1.2,0.7,1.2,1.5c0,0.5-0.3,2-0.8,2.9C606.8,682.8,606,683.2,605.3,683.2 M609.1,679.6c0-1.4-1-2.3-2.2-2.3
		c-1.9,0-3.7,2-3.7,3.9c0,1.4,0.9,2.3,2.2,2.3C607.2,683.5,609.1,681.6,609.1,679.6z"/>
	<path clip-path="url(#SVGID_4_)" d="M612.1,683.2c-0.6,0-1.2-0.4-1.2-1.5c0-0.7,0.4-2.2,0.8-2.9c0.7-1.1,1.5-1.3,1.9-1.3
		c0.8,0,1.2,0.7,1.2,1.5c0,0.5-0.3,2-0.8,2.9C613.5,682.8,612.8,683.2,612.1,683.2 M615.9,679.6c0-1.4-1-2.3-2.2-2.3
		c-1.9,0-3.7,2-3.7,3.9c0,1.4,0.9,2.3,2.2,2.3C614,683.5,615.9,681.6,615.9,679.6z"/>
	<path clip-path="url(#SVGID_4_)" d="M620.3,681.7c-0.1,0.3-0.1,0.3-0.3,0.5c-0.6,0.7-1.2,1-1.6,1c-0.7,0-0.9-0.8-0.9-1.3
		c0-0.7,0.4-2.4,0.7-3.1c0.4-0.8,1.1-1.3,1.6-1.3c0.9,0,1.1,1.1,1.1,1.2s0,0.2,0,0.2L620.3,681.7 M623.2,673.9c0,0,0-0.2-0.2-0.2
		c-0.2,0-1.5,0.1-1.8,0.2c-0.1,0-0.2,0.1-0.2,0.3c0,0.2,0.1,0.2,0.3,0.2c0.7,0,0.7,0.1,0.7,0.2l0,0.3l-0.9,3.3
		c-0.2-0.5-0.6-0.9-1.3-0.9c-1.6,0-3.4,2-3.4,4.1c0,1.3,0.8,2.2,1.9,2.2c0.3,0,1-0.1,1.8-1c0.1,0.6,0.6,1,1.3,1c0.5,0,0.8-0.3,1-0.8
		c0.2-0.5,0.4-1.3,0.4-1.4c0-0.1-0.1-0.1-0.2-0.1c-0.1,0-0.1,0.1-0.2,0.2c-0.2,0.9-0.5,1.7-1.1,1.7c-0.4,0-0.4-0.4-0.4-0.6
		c0-0.3,0-0.4,0.1-0.7L623.2,673.9z"/>
	<path clip-path="url(#SVGID_4_)" d="M628,686.7c0-0.1,0-0.1-0.2-0.3c-1.8-1.7-2.2-4.4-2.2-6.5c0-2.4,0.5-4.8,2.2-6.6
		c0.2-0.2,0.2-0.2,0.2-0.2c0-0.1-0.1-0.1-0.2-0.1c-0.1,0-1.4,0.9-2.2,2.7c-0.7,1.5-0.9,3.1-0.9,4.2c0,1.1,0.2,2.8,0.9,4.3
		c0.8,1.7,2,2.6,2.2,2.6C627.9,686.9,628,686.8,628,686.7"/>
	<path clip-path="url(#SVGID_4_)" d="M636,678.7c1.4-0.3,3.1-1.3,3.1-2.7c0-1.2-1.3-2.1-3.1-2.1h-4c-0.3,0-0.4,0-0.4,0.3
		c0,0.2,0.1,0.2,0.4,0.2c0,0,0.3,0,0.5,0c0.2,0,0.4,0.1,0.4,0.2c0,0.1,0,0.1-0.1,0.3l-1.9,7.5c-0.2,0.5-0.2,0.6-1.3,0.6
		c-0.2,0-0.4,0-0.4,0.3c0,0.1,0.2,0.1,0.2,0.1c0.4,0,1.4,0,1.8,0c0.4,0,1.4,0,1.8,0c0.1,0,0.3,0,0.3-0.3c0-0.2-0.1-0.2-0.4-0.2
		c-0.5,0-0.9,0-0.9-0.2c0-0.1,0-0.2,0.1-0.2l0.9-3.7h1.7c1.3,0,1.5,0.8,1.5,1.3c0,0.2-0.1,0.6-0.2,1c-0.1,0.4-0.2,0.9-0.2,1.2
		c0,1.5,1.7,1.5,1.8,1.5c1.2,0,1.7-1.4,1.7-1.6c0-0.2-0.2-0.2-0.2-0.2c-0.1,0-0.2,0.1-0.2,0.2c-0.3,1-1,1.3-1.3,1.3
		c-0.5,0-0.6-0.3-0.6-0.9c0-0.5,0.1-1.1,0.2-1.6c0-0.2,0.1-0.5,0.1-0.6C637.3,679.2,636.3,678.8,636,678.7 M633.9,674.9
		c0.1-0.3,0.1-0.5,0.4-0.5c0.1,0,0.6,0,0.9,0c1,0,2.5,0,2.5,1.4c0,0.5-0.2,1.4-0.8,2c-0.3,0.3-1.1,0.8-2.3,0.8H633L633.9,674.9z"/>
	<path clip-path="url(#SVGID_4_)" d="M643.4,679.9c0-1.1-0.1-2.8-0.9-4.3c-0.8-1.7-2-2.6-2.2-2.6c-0.1,0-0.1,0.1-0.1,0.1
		c0,0.1,0,0.1,0.3,0.3c1.4,1.4,2.2,3.6,2.2,6.5c0,2.4-0.5,4.8-2.2,6.6c-0.2,0.2-0.2,0.2-0.2,0.2c0,0.1,0.1,0.1,0.1,0.1
		c0.2,0,1.4-0.9,2.2-2.7C643.3,682.6,643.4,681.1,643.4,679.9"/>
</g>
<g>
	<g>
		<g>
			<path fill="none" stroke="#8861A9" stroke-width="5" stroke-miterlimit="10" d="M335.5,360.1c0,0,20.4-50,63.8-71.2"/>
			<g>
				<polygon fill="#8861A9" points="418.4,279.7 396.9,303.7 397.9,289.6 386.2,281.8 				"/>
			</g>
		</g>
	</g>
	<path fill="none" stroke="#8861A9" stroke-width="5" stroke-miterlimit="10" d="M323.9,293.3c0,0,35.9,5.9,75.5-4.4"/>
</g>
<g>
	<g>
		<path fill="none" stroke="#8861A9" stroke-width="5" stroke-miterlimit="10" d="M679.4,264c0,0,56.3-0.5,96.2,31.3"/>
		<g>
			<polygon fill="#8861A9" points="790.8,310.1 760.8,298.4 774.3,294.4 777.6,280.7 			"/>
		</g>
	</g>
</g>
<g>
	<g>
		<path fill="none" stroke="#8861A9" stroke-width="5" stroke-miterlimit="10" d="M1070.6,517.9c0,0,20,29.8,1.5,70.3"/>
		<g>
			<polygon fill="#8861A9" points="1061.4,606.4 1065.5,574.5 1072.6,586.6 1086.7,586.5 			"/>
		</g>
	</g>
</g>
<g>
	<g>
		<path fill="none" stroke="#8861A9" stroke-width="5" stroke-miterlimit="10" d="M774.8,664.8c0,0-39.3-10.7-70.8-38.5"/>
		<g>
			<polygon fill="#8861A9" points="689.3,611.1 719,623.7 705.3,627.3 701.7,640.9 			"/>
		</g>
	</g>
</g>
<g>
	<g>
		<path fill="none" stroke="#8861A9" stroke-width="5" stroke-miterlimit="10" d="M407.3,544.3c0,0-36.7-17.6-76.1-2.2"/>
		<g>
			<polygon fill="#8861A9" points="312.5,552.1 333.4,527.6 332.7,541.7 344.6,549.3 			"/>
		</g>
	</g>
</g>
<g>
	<text transform="matrix(1 0 0 1 113.1213 484.6996)" fill="#010101" font-family="'ArchivoNarrow-Regular'" font-size="22">misassemblies</text>
	<line fill="none" stroke="#7D7D7D" stroke-width="7" stroke-miterlimit="10" x1="53.3" y1="551" x2="287.1" y2="551"/>
	<polyline fill="none" stroke="#3B7DC0" stroke-width="2" stroke-miterlimit="10" points="53.3,506.3 58.8,500.6 63.8,504.2 
		66.8,499.6 72.3,508.5 77.3,503.4 82.3,501.4 85.3,508 90,502.6 96,501.4 101.4,506.3 106.2,509.1 109.6,505.4 112.6,505.9 
		117.8,506.6 123.1,507.9 125.8,501.4 129.4,507.6 136,504.4 138.8,510 149.3,509.7 153.3,501.7 157.2,507.6 160.7,533.2 
		165.7,536.8 170.2,541.1 175.7,535.6 180.9,542.4 186.1,534 189.8,535.4 194.6,535.4 198.4,540.7 203,538.3 207.6,538.7 
		211.5,535.6 215.3,542.4 219.4,538.5 222.8,543.4 226.7,538.7 231,522.7 236,524.6 240.6,526.9 243.5,523.2 248.6,525.7 
		256.5,528.6 261.2,526.7 266.8,529.6 273.8,521.7 278.6,522.4 283.2,528.1 287.1,518.7 	"/>
	<line fill="none" stroke="#E62625" stroke-miterlimit="10" stroke-dasharray="3" x1="158.7" y1="496" x2="158.7" y2="546.4"/>
	<line fill="none" stroke="#E62625" stroke-miterlimit="10" stroke-dasharray="3" x1="226.8" y1="496" x2="226.8" y2="546.4"/>
</g>
</svg>
